/* XPM */
static char *C[] = {
/* columns rows colors chars-per-pixel */
"32 32 209 2 ",
"   c #0B040A",
".  c #0C0306",
"X  c #180708",
"o  c #0C0514",
"O  c #050316",
"+  c #130A16",
"@  c #1E1014",
"#  c #2F0F0C",
"$  c #250907",
"%  c #300A06",
"&  c #3E140C",
"*  c #280F15",
"=  c #2F1415",
"-  c #271619",
";  c #3B1C1A",
":  c #361414",
">  c #0D0923",
",  c #16072A",
"<  c #1F0A36",
"1  c #271929",
"2  c #321728",
"3  c #290F30",
"4  c #342223",
"5  c #392728",
"6  c #2C2436",
"7  c #431209",
"8  c #411D0E",
"9  c #49180A",
"0  c #451F1E",
"q  c #462118",
"w  c #562716",
"e  c #762808",
"r  c #76300F",
"t  c #602E15",
"y  c #623114",
"u  c #793914",
"i  c #772E17",
"p  c #401621",
"a  c #492A2B",
"s  c #573127",
"d  c #422E36",
"f  c #5C2923",
"g  c #63342C",
"h  c #683926",
"j  c #603E3B",
"k  c #7A461E",
"l  c #764628",
"z  c #6B433A",
"x  c #7A4934",
"c  c #744331",
"v  c #3B3143",
"b  c #533347",
"n  c #6B3E45",
"m  c #51424F",
"M  c #5A4B51",
"N  c #474852",
"B  c #6D484E",
"V  c #764948",
"C  c #6D524D",
"Z  c #7D5B49",
"A  c #755145",
"S  c #6D4850",
"D  c #704751",
"F  c #6B5755",
"G  c #7D5A5D",
"H  c #5B5160",
"J  c #774E63",
"K  c #6D5967",
"L  c #7F546A",
"P  c #745B69",
"I  c #755A6A",
"U  c #7D5276",
"Y  c #7C616D",
"T  c #973E0D",
"R  c #8D2F0D",
"E  c #914213",
"W  c #AC420B",
"Q  c #B14009",
"!  c #BB4F13",
"~  c #A9581A",
"^  c #BD5319",
"/  c #9C4F2B",
"(  c #9E5723",
")  c #8B4F34",
"_  c #945933",
"`  c #8A5534",
"'  c #AA5A34",
"]  c #99643B",
"[  c #A6642F",
"{  c #A06531",
"}  c #AA7238",
"|  c #D05309",
" . c #DB5F0E",
".. c #C05915",
"X. c #C45308",
"o. c #CF6319",
"O. c #D5661F",
"+. c #DF731C",
"@. c #E47717",
"#. c #C55C27",
"$. c #C6632A",
"%. c #D36E26",
"&. c #C47026",
"*. c #DF7A2D",
"=. c #CE6C3E",
"-. c #D57333",
";. c #834940",
":. c #845649",
">. c #945949",
",. c #835A55",
"<. c #895D59",
"1. c #875D5C",
"2. c #8F6B44",
"3. c #9C6B4D",
"4. c #9C6749",
"5. c #896554",
"6. c #93655D",
"7. c #9A645D",
"8. c #A56748",
"9. c #BD6F42",
"0. c #8A5C64",
"q. c #845766",
"w. c #845B78",
"e. c #895F7B",
"r. c #865875",
"t. c #925B79",
"y. c #82606E",
"u. c #836B6C",
"i. c #946667",
"p. c #9C7267",
"a. c #856671",
"s. c #896371",
"d. c #8D6C75",
"f. c #8C637A",
"g. c #876178",
"h. c #946673",
"j. c #946B74",
"k. c #9A6B74",
"l. c #9B6379",
"z. c #936D7B",
"x. c #94697D",
"c. c #937077",
"v. c #96717E",
"b. c #9B767C",
"n. c #9E7A7E",
"m. c #A87A6C",
"M. c #A16B77",
"N. c #A46D78",
"B. c #AB6E7A",
"V. c #A37672",
"C. c #A3747A",
"Z. c #AD707B",
"A. c #A1797E",
"S. c #AC7A7D",
"D. c #AF7F77",
"F. c #AC6C67",
"G. c #BE826F",
"H. c #A8807F",
"J. c #B58579",
"K. c #D08853",
"L. c #E18341",
"P. c #865C82",
"I. c #986384",
"U. c #946B83",
"Y. c #916489",
"T. c #976982",
"R. c #977283",
"E. c #9D7383",
"W. c #9F7981",
"Q. c #9E7B89",
"!. c #9B738B",
"~. c #9B6D91",
"^. c #916391",
"/. c #9E7091",
"(. c #8D6687",
"). c #A47D81",
"_. c #AC7C81",
"`. c #A2758B",
"'. c #A47989",
"]. c #AA7E8A",
"[. c #A07782",
"{. c #B67E83",
"}. c #A37591",
"|. c #8D8080",
" X c #A68183",
".X c #AA8485",
"XX c #A38289",
"oX c #AC818A",
"OX c #AB8B8B",
"+X c #AD8D83",
"@X c #B58386",
"#X c #B88386",
"$X c #B4838A",
"%X c #BA8789",
"&X c #B68B8A",
"*X c #BB8C8C",
"=X c #B68E81",
"-X c #BF918E",
";X c #B6908D",
":X c #A98391",
">X c #B38590",
",X c #BB8D92",
"<X c #B58A96",
"1X c #AE9291",
"2X c #BD9093",
"3X c #C08F8D",
"4X c #C2938F",
"5X c #C49590",
"6X c #C59994",
/* pixels */
"K K P s.h.j.n.n.A.A.A.n.b.v.b.y.K K P y.h.j.W.n.n.n.j.h.s.P K K ",
"I I y.N.Z.@X4X4X4X4X-X-X$X`.oXa.P P y.l.B.{.5X5X5X4X#XZ.N.y.P P ",
"M.N.Z.Z.Z.#X5X5X6X4X5X5X2X~.].v.l.N.l.t.B.#X6X5X5X5X#XB.Z.B.M.s.",
"M.N.M.M.N.S.&X&X&X&X&X&X&XY.!.z.h.M.t.t.M.S.&X&X&X&XS.N.N.N.M.s.",
"h.h.h.k.k.A.E.s.b. X.XXXXXP.U.b.h.h.r.r.k.C.).d.b. XC.k.h.h.h.h.",
"#X#X#X{.#X*XoXx..X4X5X2X<X^.}.*X{.{.I.I.{.3X*Xn.&X4X4X#X#X#X@X#X",
"5X5X6X5X5X*XE.w.`.4X5X-X,X(.z.-X,X4X}.~.5X5X$Xc.&X4X5X6X5X4X4X5X",
"&X&X&X&X&X&X!.w.).&X&X@X].q.A G.5.H.E.h.=X&X$Xg.).&X&X&X&X&X&X=X",
"). X.XOX1XOX(.R.).m.p.C.3.4._ ] { 8.,.Z 2.+X'.P.)._. X X X X).c.",
"-X4X4X6X6X5X~.<X5XJ.>.#. .} } 3.[ r : d 5.-X}.~.4X4X4X4X4X4X4Xb.",
"6X5X4X5X5X5X}.].4XG.#.| +...x 5.C d - t g V.i.E.5X5X4X*X4X&XA.d.",
"@X&X&X&X&X&X/.r.6.=.|  .+.E s x Z ` t E 9 5 J Y.&X&X&X&X&X;X.Xd.",
"A..XH. X XA.[.q.) ! %.%.*.[ k k ( X.& * $ X b q.V. X.XOX1X1XOXn.",
"#X#X#X#X#X4X4Xk.' $.-.$.K.R.5 y w 7 . O # . 4 V V.5X5X6X6X6X6X5X",
"N.B.Z.Z.S.%X5Xm.^ -.' _ 3.N o 9 2 , O * k 8 4 n i.5X4X4X5X4X4X5X",
"P y.k.N.N.S.&XF.#.L.9.3.3.l 8 9 2 < , q X.e 4 D 0.=X*X*X&X&X&X&X",
"c.n.A..X Xn.R.k.$...i F u.:.h a 3 , > + 8 $ 5 f.x.W.b.k.h.Y Y Y ",
"4X4X6X6X6X6X2X_./ ~ h M H m d 1 : * O @ 8   4 i.>X5X#XB.N.r.P K ",
"4X4X6X4X4X5X4XD.) ~ u v F _ q , 0 Q 9 7 e X z V.>X5X#XB.B.B.C.s.",
"&X&X&X&X&X&X&XJ.:.g : 6 x W 7 O : R % o X ; G ).&X&XS.M.N.N.M.s.",
".X XH.).A.).).0.0.1.s 1 2 &   o = # X . = B z G b. XC.k.h.h.h.h.",
"6X6X4X-X4X4XoXe.'.$X5.t w + O o e R % a D _.m.j.&X4X4X%XJ.#X#X#X",
"4X5X5X6X6X5X&Xv.`.V.A ' R a 2 # g >.V g V #X*XA.&X4X5X5X6X4X4X5X",
"&X&X&X&X&X&X&Xf.U.h.<.C.k.5.c g r.`.C.G f.Y.].b. X&X&X&X&X&X&X&X",
"A. X.XOX1X1X.XE.[.).E.E.).p.6.L e.).XXQ.:X!.U.).A. X_. X X X).j.",
"4X5X6X6X6X6X6X5X4X4X4X4X5X*X:Xw.'.4X-X2X<X<X>X5X5X4X4X5X4X4X-Xb.",
"4X5X5X4X6X4X4X4X4X5X4X*X2XoXU.g.oX6X5X5X2X2X5X4X5X5X5X3X-X&X Xd.",
"&X&X&X&X&X&X&X&X&X&X&X$X;X&XR.f._.&X&X&X;X;X&X&X&X&X=X&X;X&X Xd.",
"H.A. X). XH. Xj.b.)..XOXOX1XOXA.A. X). X X).).c.b. X.X.XOX1XOX).",
"#X#X@X#X#X4X4X).&X5X5X*X*X&X%X#X5X4X*X&X4X-X Xc.&X5X5X*X&X*X%X#X",
"N.N.Z.Z.Z.#X4X X&X5X#XZ.B.Z.B.C.4X4X4X4X6X5X;Xn.&X5X%XZ.Z.B.N.M.",
"I y.N.Z.Z.{.4XA.#X5X{.Z.Z.N.y.y.*X5X4X5X5X5X4XA.@X4X{.Z.Z.N.y.I "
};
