/* XPM */
static char *door[] = {
/* columns rows colors chars-per-pixel */
"32 32 99 2 ",
"   c #0D0E13",
".  c #0F1313",
"X  c #141413",
"o  c #1C1515",
"O  c #1F1816",
"+  c #1C1319",
"@  c #241717",
"#  c #221916",
"$  c #2B1F13",
"%  c #251A19",
"&  c #2B1C1B",
"*  c #35210F",
"=  c #2E2015",
"-  c #2E221D",
";  c #322214",
":  c #3C2111",
">  c #3B2A15",
",  c #31231F",
"<  c #3B261B",
"1  c #3D2A1E",
"2  c #2F2220",
"3  c #332520",
"4  c #47350C",
"5  c #402412",
"6  c #442D1D",
"7  c #4B2C1B",
"8  c #443617",
"9  c #473817",
"0  c #4C3A12",
"q  c #4E351F",
"w  c #4D381B",
"e  c #563616",
"r  c #523D13",
"t  c #5E3B14",
"y  c #52301B",
"u  c #5E321A",
"i  c #5A3918",
"p  c #723E0E",
"a  c #7D3E0A",
"s  c #623D15",
"d  c #693E12",
"f  c #613319",
"g  c #533F20",
"h  c #554011",
"j  c #5D4316",
"k  c #5D441D",
"l  c #5A491F",
"z  c #7F410B",
"x  c #664014",
"c  c #6A4214",
"v  c #654916",
"b  c #604018",
"n  c #64491C",
"m  c #6B4D1B",
"M  c #754112",
"N  c #744D16",
"B  c #704F1A",
"V  c #6B5413",
"C  c #7F5611",
"Z  c #74521B",
"A  c #5C4C21",
"S  c #6B603A",
"D  c #813F0C",
"F  c #864206",
"G  c #8E4304",
"H  c #86410B",
"J  c #8E4408",
"K  c #944606",
"L  c #805713",
"P  c #855A11",
"I  c #8C5C11",
"U  c #A37E1E",
"Y  c #8E7B3E",
"T  c #A6801F",
"R  c #AC851D",
"E  c #A68120",
"W  c #B58C21",
"Q  c #D89E04",
"!  c #D59D0A",
"~  c #C39115",
"^  c #D59E12",
"/  c #D7A00D",
"(  c #DAA20C",
")  c #D6A010",
"_  c #E0A507",
"`  c #EBAE05",
"'  c #E8AA08",
"]  c #EDB20B",
"[  c #F4B602",
"{  c #DFAF31",
"}  c #ECB935",
"|  c #E2B339",
" . c #B3B793",
".. c #B1BA9B",
"X. c #9EB5A1",
"o. c #B4BFA0",
"O. c #BEC19B",
"+. c #B4C0A2",
"@. c #A6C3B2",
/* pixels */
"J H f D K K K K K K K K K K K K K K K K K K K K K K K K H f H K ",
"H D u a G G G G G G G G G G G G G G G G G G G G G G G G a u D K ",
"f u < : * * : * * * * * * * * * * * * * * * * * * * * * ; < y u ",
"H D : . . X X X X X X X X X X . X X X X X X X X X X X X X = e t ",
"J F * X @ @ @ @ o @ @ @ @ @ @ o @ @ @ @ @ @ o @ @ @ # # @ = t x ",
"M p $ X @ % & % o % % & & % # O # @ & & & @ o # & & & & % = t x ",
"H z $   @ @ - & # - 3 3 , , , % , , , , - @ @ - , , , , - ; t c ",
"I I 0 h t < , & O - 3 3 3 < , & , , 3 , & @ @ - 3 , , , - ; t x ",
"_ / U / ! b & 2 O 2 3 3 3 3 , & , 3 3 , , # O - 3 3 3 3 & ; i d ",
"[ ] W ] ` v % & O 2 3 3 3 3 , & , 3 3 , & # O - 3 3 3 3 - > C I ",
"( ^ U / ! j & & # - 3 3 3 3 , & , 3 3 3 , % O - 3 3 3 3 % r Q ` ",
"B m 8 0 0 ; 3 ; = 2 3 3 3 3 , & , 3 3 , , , # - 3 3 3 3 - A { } ",
"i e $   X @ , , % 2 3 3 3 3 , & , 3 3 3 , & # , , 6 k A n Y  .+.",
"s s $ X @ & , , - 2 3 3 3 3 , & , , 3 3 , & % , 2 v W E / | +.@.",
"s t $ X @ & , , # - 3 3 3 3 3 - , 3 3 3 , - & , 2 m ) T / { +.@.",
"s s $ X @ & , , & , 3 3 3 3 , & , 3 3 3 , & & 3 2 m ! V 4 S X.@.",
"s s $ X @ & 3 , & , 3 3 3 3 , & , 3 3 3 , & & , , m ! V 4 S X.@.",
"s t $ X @ % , , & , 3 3 3 3 , & , < 3 3 , , & , 2 m ) R ! | +.@.",
"d t $ X @ & , , & , 3 3 3 3 - - 3 3 3 3 , & & , 3 m ~ E / | +.@.",
"t t @   @ & 2 3 & , 3 3 3 3 - # - 3 3 3 , , & , 3 3 k w v Y  .O.",
"P C 0 0 e < 3 2 & , , 3 3 , & O - 3 3 3 3 3 & , 3 3 & & + A { } ",
"_ ( U ! ! j & 3 - , 3 3 3 3 - O - 3 3 3 3 , & , 3 3 3 3 % r ! ' ",
"[ ] W ] ` v % 3 & , 3 3 3 , & O 2 3 3 3 3 , & , 3 3 3 3 - ; m Z ",
"( / U / ! k & 3 ; , 3 3 3 3 - O - 3 3 3 3 , - , 3 3 3 3 - $ e i ",
"Z m 9 h h ; , , & 3 3 3 3 3 & O - 3 3 3 3 , & , 3 3 3 3 - = t x ",
"e e #   X @ , , & - 3 3 3 3 - # - 3 3 3 3 - # - 3 3 3 3 - ; s x ",
"s s $ X @ % , , # - , , , , % # - 3 3 3 3 - % - 3 3 3 3 - ; t c ",
"t e $ X o % - - o @ # @ % % @ X - - - - - - o @ % % @ % @ = i N ",
"y y < : : : 5 5 : : : : = : = : = ; ; = ; $ $ $ = $ = = $ , q q ",
"H D f D K G G G G K G F p z p z x t t t s t s t s t s s e 6 i t ",
"D D f D K J G G J J J H p z M z x t x s s s s s s s v s t 6 i t ",
"7 7 3 7 7 7 7 7 7 7 7 7 6 6 6 7 6 1 1 1 1 1 1 1 1 1 3 6 3 3 < < "
};
