/* XPM */
static char * door2_xpm[] = {
"32 32 111 2",
"  	c #CA0000",
". 	c #BF0000",
"+ 	c #890000",
"@ 	c #B70000",
"# 	c #D30000",
"$ 	c #850200",
"% 	c #B10000",
"& 	c #CC0000",
"* 	c #501A00",
"= 	c #550C00",
"- 	c #491600",
"; 	c #66003A",
"> 	c #431A00",
", 	c #721700",
"' 	c #071515",
") 	c #141411",
"! 	c #51004B",
"~ 	c #4E004C",
"{ 	c #3D1900",
"] 	c #752300",
"^ 	c #802600",
"/ 	c #BE0000",
"( 	c #310F0F",
"_ 	c #59004A",
": 	c #241111",
"< 	c #550049",
"[ 	c #2C1508",
"} 	c #8B2900",
"| 	c #A31100",
"1 	c #A00800",
"2 	c #391A00",
"3 	c #311410",
"4 	c #5E004A",
"5 	c #3A130E",
"6 	c #27150D",
"7 	c #B30000",
"8 	c #0B0E1A",
"9 	c #5F0049",
"0 	c #3C1C03",
"a 	c #421E03",
"b 	c #401C07",
"c 	c #912900",
"d 	c #BC4100",
"e 	c #613400",
"f 	c #6E3800",
"g 	c #FF8C00",
"h 	c #FF8A00",
"i 	c #CF7100",
"j 	c #FF8600",
"k 	c #812F00",
"l 	c #5F004B",
"m 	c #3D1B13",
"n 	c #7B2500",
"o 	c #911F00",
"p 	c #FF9D00",
"q 	c #FF9B00",
"r 	c #E57D00",
"s 	c #FF9500",
"t 	c #843D00",
"u 	c #4E2200",
"v 	c #A94100",
"w 	c #FF8B00",
"x 	c #FF8700",
"y 	c #7A3800",
"z 	c #6A3500",
"A 	c #FF8500",
"B 	c #934000",
"C 	c #8C4000",
"D 	c #563200",
"E 	c #630048",
"F 	c #813B00",
"G 	c #FF9E00",
"H 	c #FFA700",
"I 	c #72003A",
"J 	c #872B00",
"K 	c #714800",
"L 	c #823D00",
"M 	c #A97700",
"N 	c #B1BC00",
"O 	c #A4C857",
"P 	c #862600",
"Q 	c #D27400",
"R 	c #FFA300",
"S 	c #6CCF9D",
"T 	c #D37200",
"U 	c #874D00",
"V 	c #5C2E00",
"W 	c #7C5E00",
"X 	c #75C081",
"Y 	c #DA7700",
"Z 	c #FB7D00",
"` 	c #642F00",
" .	c #BDC600",
"..	c #B14400",
"+.	c #620048",
"@.	c #56004E",
"#.	c #FF9000",
"$.	c #994200",
"%.	c #793900",
"&.	c #63003F",
"*.	c #5A3300",
"=.	c #4F004D",
"-.	c #5A004A",
";.	c #9C3800",
">.	c #5A0F00",
",.	c #600041",
"'.	c #5D0043",
").	c #682800",
"!.	c #5C2000",
"~.	c #681500",
"{.	c #512000",
"  . + @ # # # # # # # # # # # # # # # # # # # # # # # # . + . # ",
". @ $ %                                           &     % $ @ # ",
"+ $ * = - - = - - - - - - - - ; - - - - - - - - ; - - - > * , $ ",
". @ = ' ' ) ) ! ) ) ) ) ) ) ) ~ ) ) ) ) ) ) ) ! ) ) ) ) ) { ] ^ ",
"  / - ) ( ( _ ( : ( ( ( ( ( ( < ( ( ( ( ( _ < ( ( ( [ [ ( { ^ } ",
"| 1 2 ) ( 3 4 3 : 3 3 5 5 3 [ 6 [ ( 5 5 4 ( : [ 5 5 5 5 3 { ^ } ",
". 7 2 8 ( ( 9 4 [ 0 a a b b b 3 b b b b 9 ( ( 0 b b b b 0 > ^ c ",
"d d e f ^ * b 4 6 0 a a a * b 5 b b a b 5 _ ( 0 a b b b 0 > ^ } ",
"g h i h j k 5 l 6 m a a a a b 5 b a a b b [ 6 0 a a a a 5 > n o ",
"p q r q s t 3 5 6 m a a a a b 5 b a a b 5 [ 6 0 a a a a 0 u v d ",
"w x i h j y 5 5 [ 0 a a a a b 5 b a a a b 3 6 0 a a a a 3 z A s ",
"B C D e e > a > { m a a a a b 5 b a a b b b [ 0 a a E E 9 F G H ",
"n ] 2 8 ) ( b b 3 m a a a a b 5 b a a a b 5 [ b b I J K L M N O ",
"P P 2 ) ( 5 b b 0 m a a a a b 5 b b a a b 5 3 b l t r Q h R O S ",
"P ^ 2 ) ( 5 b b [ 0 a a a a a 0 b a a a b 0 5 b l C h T h G O S ",
"P P 2 ) ( 5 b b 5 b a a a a b 5 b a a a b 5 5 a m C j U V W X S ",
"P P 2 ) ( 5 a b 5 b a a a a b 5 b a a a b 5 5 b b C j U V W X S ",
"P ^ 2 ) ( 3 b b 5 b a a a a b 5 b * a a b b 5 b m C h Y j R O S ",
"o ^ 2 ) ( 5 b b 5 b a a a a 0 0 a a a a b 5 5 b a C Z Q h R O S ",
"^ ^ ( 8 ( 5 m a 5 b a a a a 0 [ 0 a a a b b 5 b a E J ` t M N  .",
"..v e e ] * a m 5 +.b a a b 5 6 0 a a a a a 5 b a a 5 4 @.K G r ",
"g w i j j y 5 a 0 +.a a a a 0 6 0 a a a a b 5 b a a a a 3 z j #.",
"p q r q s t 3 a 4 b a a a b 5 6 m a a a a b 5 b a a a a 0 > C $.",
"w h i h j %.5 E &.b a a a a 0 6 0 a a a E +.0 b a a a a 0 2 ] n ",
"$.C *.f f > +.b 5 a a a a a 5 6 0 a a a a +.4 b a a a a 0 { ^ } ",
"] ] [ =.! _ +.b 5 0 a a a a 0 [ 0 a a a a 0 [ 9 E a a a 0 > P } ",
"P P 2 ) ( 3 b b [ 0 b b b b 3 [ 0 a a a a 0 3 0 E E a a 0 > ^ c ",
"^ ] 2 ) : 3 0 0 : ( [ ( 3 3 ( ) 0 0 0 0 0 0 : ( 3 -._ 3 ( { n ;.",
", , * = = = >.>.= = = = { = { = { > > { > 2 2 2 { 2 ,.,.'.b ).).",
". @ + @ #         #   / 1 7 1 7 } ^ ^ ^ P ^ P ^ P ^ P P ] !.n ^ ",
"@ @ + @ #             . 1 7 | 7 } ^ } P P P P P P P t P ^ !.n ^ ",
"~.~.a ~.~.~.~.~.~.~.~.~.!.!.!.~.!.{.{.{.{.{.{.{.{.{.a !.a a * * "};
