/* XPM */
static char *floor[] = {
/* columns rows colors chars-per-pixel */
"32 32 42 1 ",
"  c #6D5967",
". c #745B69",
"X c #785D6B",
"o c #7C616D",
"O c #82606E",
"+ c #846671",
"@ c #896370",
"# c #8E6C75",
"$ c #946773",
"% c #986774",
"& c #936C76",
"* c #9A6A76",
"= c #937077",
"- c #957179",
"; c #9B757B",
": c #9E797E",
"> c #A26B77",
", c #A46D78",
"< c #AA6E7A",
"1 c #A2747C",
"2 c #AD707B",
"3 c #A17A7F",
"4 c #AB797F",
"5 c #A47E81",
"6 c #A97E81",
"7 c #B67E83",
"8 c #A68183",
"9 c #A98485",
"0 c #AB8B8B",
"q c #B68385",
"w c #B98386",
"e c #B38887",
"r c #BA8789",
"t c #B68B8A",
"y c #BA8C8B",
"u c #B6908D",
"i c #BE918E",
"p c #AE9291",
"a c #C08F8D",
"s c #C2938F",
"d c #C49590",
"f c #C59994",
/* pixels */
"  .@$&::::::::;+  .O$&::::&&@.  ",
"..O,<wsdddiytse+..O,2wsdsd72,O..",
">,<<2wddddddfdi;>,<22wddddw22<>@",
">,,,,4tttytyyyt=$>,,,4tttt4,,>>@",
"$%%%*15&;680093:$%&%%35=;5;>%&%$",
"w7wwwyt:tdddddssww77way:edsrw777",
"ddfdds9-tdddddsddddddst-tddddddd",
"teettte-8ttttttttttyyte-6tettttt",
"5890pu08:888688#:990pp955655685=",
"idddffddidsssss:tidfffddddddddd;",
"ddddsdddddsyst8-tddddddddddyit3#",
"etttttttytetuu8&5tttttttetteuu8#",
"5855853-:890pp035555555=:6900p0:",
"wwwwwss5tsddfffsddtsdd6=tdddfffd",
"><222ws8tsssssssdsdsdfu:tddddddd",
".O*,,7e;8yyyuyyuytyyttt;6ttytttt",
"=;58858:3555555&;589998:::;*#Ooo",
"sddffddddsaayy0=tddfddfddd72,O. ",
"ddddidddddddfdi:ydddddddddw2<<,@",
"etutttyetettyte-8yttyttttt4,,,,@",
"9985555#:890098:9955553#;5;>$&$$",
"fdiiise-qdddddsdiffiise-edat7ww7",
"dddffdi:tdddddddfdddddu3tddddddd",
"tttttee-8ttttyeettttttt;6ttttttt",
"3890pp055655565=:990pp985656555#",
"sddfffdddddddds3tddfffdddddsddd;",
"dddddddddddyit5-tssddsssdddast3#",
"etetettttteetp9=9ttttutttttetu8#",
"3585855&:8900u933488883=;8890u0:",
"wwwwrss5eddytyttssyyss8-tdsatytw",
",<222ws8edr22<,2sdssddu3tda222<>",
"XO,2<7s3wd7<<<OOydssdss3qs4<2>oo"
};
