/* XPM */
static char * floorx_xpm[] = {
"32 32 139 2",
"  	c #6D5967",
". 	c #745B69",
"+ 	c #896370",
"@ 	c #946773",
"# 	c #936C76",
"$ 	c #9E797E",
"% 	c #9B757B",
"& 	c #846671",
"* 	c #82606E",
"= 	c #A46D78",
"- 	c #AA6E7A",
"; 	c #B98386",
"> 	c #C2938F",
", 	c #C49590",
"' 	c #BE918E",
") 	c #BA8C8B",
"! 	c #B68B8A",
"~ 	c #B38887",
"{ 	c #AD707B",
"] 	c #B67E83",
"^ 	c #A26B77",
"/ 	c #C59994",
"( 	c #AB797F",
"_ 	c #937077",
": 	c #986774",
"< 	c #9A6A76",
"[ 	c #A2747C",
"} 	c #A47E81",
"| 	c #A97E81",
"1 	c #A68183",
"2 	c #AB8B8B",
"3 	c #A98485",
"4 	c #A17A7F",
"5 	c #C08F8D",
"6 	c #BA8789",
"7 	c #957179",
"8 	c #AE9291",
"9 	c #B6908D",
"0 	c #A48082",
"a 	c #9C787D",
"b 	c #8E6C75",
"c 	c #B48884",
"d 	c #AE8582",
"e 	c #BA8D89",
"f 	c #B28887",
"g 	c #AB807F",
"h 	c #B08584",
"i 	c #A07A79",
"j 	c #7E6163",
"k 	c #9B7879",
"l 	c #8D6C73",
"m 	c #73575B",
"n 	c #936D70",
"o 	c #AD837F",
"p 	c #84635F",
"q 	c #9E7873",
"r 	c #BE908C",
"s 	c #B08581",
"t 	c #826062",
"u 	c #564144",
"v 	c #9B7675",
"w 	c #B58985",
"x 	c #906C68",
"y 	c #A17A76",
"z 	c #B28782",
"A 	c #A37B78",
"B 	c #926E6A",
"C 	c #846662",
"D 	c #7E6362",
"E 	c #9B777B",
"F 	c #AE8282",
"G 	c #7D625F",
"H 	c #856362",
"I 	c #B68988",
"J 	c #7A5A59",
"K 	c #755757",
"L 	c #866464",
"M 	c #A17B7A",
"N 	c #7F6163",
"O 	c #705557",
"P 	c #84616A",
"Q 	c #7D5D62",
"R 	c #795C5E",
"S 	c #705658",
"T 	c #896A6A",
"U 	c #9D7B7B",
"V 	c #7C616D",
"W 	c #9C7E7E",
"X 	c #4A363A",
"Y 	c #7F605F",
"Z 	c #94706B",
"` 	c #A07975",
" .	c #C19691",
"..	c #B58A85",
"+.	c #9A7472",
"@.	c #715759",
"#.	c #684D4C",
"$.	c #8C6A66",
"%.	c #9F7676",
"&.	c #856564",
"*.	c #866564",
"=.	c #684E53",
"-.	c #7F6263",
";.	c #8C6968",
">.	c #957170",
",.	c #876E6E",
"'.	c #856B6B",
").	c #826565",
"!.	c #8F6F70",
"~.	c #917172",
"{.	c #816265",
"].	c #846467",
"^.	c #A17B7E",
"/.	c #B68385",
"(.	c #BD8F8A",
"_.	c #8F6C68",
":.	c #82615E",
"<.	c #A17976",
"[.	c #AC8580",
"}.	c #846461",
"|.	c #8C6967",
"1.	c #AD8483",
"2.	c #98726F",
"3.	c #98736F",
"4.	c #886663",
"5.	c #A98683",
"6.	c #826465",
"7.	c #987372",
"8.	c #9A7675",
"9.	c #836362",
"0.	c #936F75",
"a.	c #806767",
"b.	c #75585B",
"c.	c #9C777A",
"d.	c #977676",
"e.	c #9E7A7C",
"f.	c #96716D",
"g.	c #C0928D",
"h.	c #785D6B",
"    . + @ # $ $ $ $ $ $ $ $ % &     . * @ # $ $ $ $ # # + .     ",
". . * = - ; > , , , ' ) ! > ~ & . . * = { ; > , > , ] { = * . . ",
"^ = - - { ; , , , , , , / , ' % ^ = - { { ; , , , , ; { { - ^ + ",
"^ = = = = ( ! ! ! ) ! ) ) ) ! _ @ ^ = = = ( ! ! ! ! ( = = ^ ^ + ",
"@ : : : < [ } # % | 1 2 2 3 4 $ @ : # : : 4 } _ % } % ^ : # : @ ",
"; ] ; ; ; ) ! $ ! , , , , , > > ; ; ] ] ; 5 ) $ ~ , > 6 ; ] ] ] ",
", , / , , > 3 7 ! , , , , , > , , , , , , > ! 7 ! , , , , , , , ",
"! ~ ~ ! ! ! ~ 7 1 ! ! ! ! ! ! ! ! ! ! ) ) ! ~ 7 | ! ~ ! ! ! ! ! ",
"} 1 3 2 8 9 2 0 a 1 1 1 | 1 1 b $ 3 3 2 8 8 3 } } | } } | 1 } _ ",
"' , , , / / , c d , > > > > > $ ! ' , / / / , , , , , , , , , % ",
", , , , > , , e e , > ) > ! 1 7 ! , , , , , , , , , , ) ' ! 4 b ",
"~ ! ! ! ! ! ! f g ! ~ ! 9 9 1 # } ! ! ! ! ! ! ! h i ! ~ 9 9 1 b ",
"} 1 } } 1 } 4 7 $ j k 2 8 8 2 4 } } } } } } } l m n 3 2 2 8 2 $ ",
"; ; ; ; ; > > } ! o p q / / / > , , ! r s e t u v , , , / / / , ",
"^ - { { { ; > 1 ! > w x y r > > , > z A B C D E ! , , , , , , , ",
". * < = = ] ~ % 1 ) ) F G H I 9 ) v J K L M ! % | ! ! ) ! ! ! ! ",
"_ % } 1 1 } 1 $ 4 } } } } N O P Q R S T U 3 1 $ $ $ % < b * V V ",
"> , , / / , , , , > 5 5 ) ) W X Y Z `  ., , / , , , ] { = * .   ",
", , , , ' , , , , , , , / ..+.@.#.$., , , , , , , , ; { - - = + ",
"~ ! 9 ! ! ! ) ~ ! ~ ! ! %.&.*.=.-.;.>.! ) ! ! ! ! ! ( = = = = + ",
"3 3 1 } } } } b $ 1 3 ,.'.).!.$ 3 ~.{.].^.} 4 b % } % ^ @ # @ @ ",
"/ , ' ' ' > ~ 7 /.(._.:.<.(.> , ' / [.}.|.r ~ 7 ~ , 5 ! ] ; ; ] ",
", , , / / , ' $ 1.2.$.e , , , , / , , e 3.4.5.4 ! , , , , , , , ",
"! ! ! ! ! ~ ~ 7 6.7.! ! ! ) ~ ~ ! ! ! ! ! 8.9.0.| ! ! ! ! ! ! ! ",
"4 1 3 2 8 8 a.b.c.| } } } | } _ $ 3 3 2 8 8 d.e.} | } | } } } b ",
"> , , / /  .f.g., , , , , , > 4 ! , , / / / , , , , , > , , , % ",
", , , , , , , , , , , ) ' ! } 7 ! > > , , > > > , , , 5 > ! 4 b ",
"~ ! ~ ! ~ ! ! ! ! ! ~ ~ ! 8 3 _ 3 ! ! ! ! 9 ! ! ! ! ! ~ ! 9 1 b ",
"4 } 1 } 1 } } # $ 1 3 2 2 9 3 4 4 ( 1 1 1 1 4 _ % 1 1 3 2 9 2 $ ",
"; ; ; ; 6 > > } ~ , , ) ! ) ! ! > > ) ) > > 1 7 ! , > 5 ! ) ! ; ",
"= - { { { ; > 1 ~ , 6 { { - = { > , > > , , 9 4 ! , 5 { { { - ^ ",
"h.* = { - ] > 4 ; , ] - - - * * ) , > > , > > 4 /.> ( - { ^ V V "};
