/* XPM */
static char * guardian_xpm[] = {
"32 32 302 2",
"  	c #6D5967",
". 	c #745B69",
"+ 	c #896370",
"@ 	c #946773",
"# 	c #936C76",
"$ 	c #9E797E",
"% 	c #99757B",
"& 	c #6B6272",
"* 	c #4F5A6E",
"= 	c #695968",
"- 	c #82606E",
"; 	c #A46D78",
"> 	c #AA6E7A",
", 	c #B98386",
"' 	c #C2938F",
") 	c #C49590",
"! 	c #BE918E",
"~ 	c #BA8C8B",
"{ 	c #B68B8A",
"] 	c #B28887",
"^ 	c #626072",
"/ 	c #445A70",
"( 	c #6E5B6A",
"_ 	c #AD707B",
": 	c #B67E83",
"< 	c #A26B77",
"[ 	c #C59994",
"} 	c #C29490",
"| 	c #B08A8A",
"1 	c #676374",
"2 	c #5A5B6F",
"3 	c #9B6A77",
"4 	c #AB797F",
"5 	c #AE8788",
"6 	c #736F7C",
"7 	c #32576E",
"8 	c #4F556A",
"9 	c #966774",
"0 	c #986774",
"a 	c #9A6A76",
"b 	c #A2747C",
"c 	c #A47E81",
"d 	c #9B757B",
"e 	c #A97E81",
"f 	c #A68183",
"g 	c #AB8B8B",
"h 	c #9B8387",
"i 	c #716D7B",
"j 	c #3C586F",
"k 	c #255B70",
"l 	c #3A6072",
"m 	c #645A6D",
"n 	c #846672",
"o 	c #A17A7F",
"p 	c #937077",
"q 	c #A08285",
"r 	c #3A5A71",
"s 	c #204E67",
"t 	c #215B6F",
"u 	c #246275",
"v 	c #395469",
"w 	c #956E78",
"x 	c #C08F8D",
"y 	c #B38887",
"z 	c #BA8789",
"A 	c #A98485",
"B 	c #957179",
"C 	c #A08183",
"D 	c #395369",
"E 	c #286B7C",
"F 	c #2D7684",
"G 	c #465C6E",
"H 	c #A28082",
"I 	c #957B81",
"J 	c #3C5B72",
"K 	c #2C5B73",
"L 	c #42B1B8",
"M 	c #4CCACE",
"N 	c #4F7783",
"O 	c #98777C",
"P 	c #AE9291",
"Q 	c #B6908D",
"R 	c #8B717B",
"S 	c #385970",
"T 	c #2A5B72",
"U 	c #4AC8CC",
"V 	c #56E6E7",
"W 	c #517D85",
"X 	c #8E6E73",
"Y 	c #9F7F82",
"Z 	c #385268",
"` 	c #1E4D64",
" .	c #46C4C8",
"..	c #58E4E5",
"+.	c #5E7A7E",
"@.	c #A67E7A",
"#.	c #C1928F",
"$.	c #9F8286",
"%.	c #3B586F",
"&.	c #1B4053",
"*.	c #44C0C2",
"=.	c #59E5E5",
"-.	c #657C7F",
";.	c #A77F7A",
">.	c #8E6C75",
",.	c #AB8687",
"'.	c #8C7880",
").	c #A88487",
"!.	c #978186",
"~.	c #3D5C72",
"{.	c #1B3C4E",
"].	c #43BFC1",
"^.	c #55E4E4",
"/.	c #517579",
"(.	c #977372",
"_.	c #9E797F",
":.	c #886E78",
"<.	c #97777D",
"[.	c #937980",
"}.	c #566679",
"|.	c #907E84",
"1.	c #918288",
"2.	c #39586D",
"3.	c #193A4D",
"4.	c #44C1C2",
"5.	c #52E4E5",
"6.	c #3A6F74",
"7.	c #836466",
"8.	c #A37E81",
"9.	c #B68D8C",
"0.	c #666979",
"a.	c #8F7A82",
"b.	c #A68688",
"c.	c #5F697B",
"d.	c #A08387",
"e.	c #9F8285",
"f.	c #364E64",
"g.	c #143648",
"h.	c #42BBBD",
"i.	c #4FDDDE",
"j.	c #3F6D72",
"k.	c #8F6C6D",
"l.	c #C39590",
"m.	c #B58C8B",
"n.	c #566578",
"o.	c #586779",
"p.	c #6E6E7D",
"q.	c #416076",
"r.	c #676676",
"s.	c #64616F",
"t.	c #264860",
"u.	c #123044",
"v.	c #2A7A7F",
"w.	c #329094",
"x.	c #344D55",
"y.	c #937273",
"z.	c #B98F8D",
"A.	c #C3948F",
"B.	c #AB8585",
"C.	c #746A78",
"D.	c #6B6B7B",
"E.	c #78717E",
"F.	c #79707D",
"G.	c #776B77",
"H.	c #5D5F6E",
"I.	c #254960",
"J.	c #112C41",
"K.	c #09102B",
"L.	c #090B2A",
"M.	c #27293A",
"N.	c #846A70",
"O.	c #AD8688",
"P.	c #A58183",
"Q.	c #9B787E",
"R.	c #9D797E",
"S.	c #A07C80",
"T.	c #A17C80",
"U.	c #826D77",
"V.	c #2F4D64",
"W.	c #17364B",
"X.	c #102639",
"Y.	c #0D2034",
"Z.	c #242A3B",
"`.	c #74626B",
" +	c #987D82",
".+	c #A18083",
"++	c #A78384",
"@+	c #7C616D",
"#+	c #997C82",
"$+	c #2A556C",
"%+	c #1F4054",
"&+	c #0D2135",
"*+	c #2E2E3C",
"=+	c #9A7776",
"-+	c #A88A8C",
";+	c #827680",
">+	c #B38C8B",
",+	c #A18587",
"'+	c #3D5A70",
")+	c #29566E",
"!+	c #1E4258",
"~+	c #262A3A",
"{+	c #7B656A",
"]+	c #7B717B",
"^+	c #536578",
"/+	c #AC898A",
"(+	c #AF8686",
"_+	c #A98587",
":+	c #B28989",
"<+	c #987A7F",
"[+	c #36536A",
"}+	c #1E4C65",
"|+	c #163A50",
"1+	c #0D2033",
"2+	c #0E2337",
"3+	c #1B3F55",
"4+	c #3C576C",
"5+	c #6D6C7B",
"6+	c #A58486",
"7+	c #967A80",
"8+	c #696B7B",
"9+	c #937F85",
"0+	c #8C7B83",
"a+	c #3A5C72",
"b+	c #224F68",
"c+	c #163A4F",
"d+	c #0D2031",
"e+	c #0F2538",
"f+	c #1A3F56",
"g+	c #625F6F",
"h+	c #96787E",
"i+	c #A27D81",
"j+	c #B68385",
"k+	c #516578",
"l+	c #6D6A77",
"m+	c #716B78",
"n+	c #375F76",
"o+	c #2B5870",
"p+	c #1E4054",
"q+	c #0F2738",
"r+	c #2A3F53",
"s+	c #7D6C74",
"t+	c #A68385",
"u+	c #BD908D",
"v+	c #B58D8C",
"w+	c #7F747F",
"x+	c #43586D",
"y+	c #25526B",
"z+	c #2F5D75",
"A+	c #305E76",
"B+	c #274E63",
"C+	c #1E4154",
"D+	c #3A5368",
"E+	c #A18184",
"F+	c #B58B8A",
"G+	c #AB8587",
"H+	c #756874",
"I+	c #34566C",
"J+	c #315D75",
"K+	c #2F5C74",
"L+	c #2E5B72",
"M+	c #3F5F75",
"N+	c #967C82",
"O+	c #A37D80",
"P+	c #95767C",
"Q+	c #736A78",
"R+	c #395F76",
"S+	c #305E77",
"T+	c #3D6077",
"U+	c #8B7880",
"V+	c #A28385",
"W+	c #3D5B71",
"X+	c #29576F",
"Y+	c #2D5A73",
"Z+	c #426177",
"`+	c #A18487",
" @	c #9B7D81",
".@	c #214F68",
"+@	c #416177",
"@@	c #A08286",
"#@	c #3F5E74",
"$@	c #2D5A72",
"%@	c #2E5C74",
"&@	c #436177",
"*@	c #967D83",
"=@	c #9E8488",
"-@	c #847881",
";@	c #486278",
">@	c #486277",
",@	c #7D6C7A",
"'@	c #997C81",
")@	c #B18889",
"!@	c #7D737E",
"~@	c #6A6D7C",
"{@	c #A96E7A",
"]@	c #9C6B78",
"^@	c #786678",
"/@	c #6C6D7C",
"(@	c #785D6B",
"_@	c #625F72",
":@	c #656A7B",
"<@	c #B88F8D",
"    . + @ # $ $ $ $ $ $ $ $ % & * = . - @ # $ $ $ $ # # + .     ",
". . - ; > , ' ) ) ) ! ~ { ' ] ^ / ( - ; _ , ' ) ' ) : _ ; - . . ",
"< ; > > _ , ) ) ) ) ) ) [ } | 1 2 3 > _ _ , ) ) ) ) , _ _ > < + ",
"< ; ; ; ; 4 { { { ~ { ~ ~ 5 6 7 8 9 ; ; ; 4 { { { { 4 ; ; < < + ",
"@ 0 0 0 a b c # d e f g h i j k l m n 0 0 o c p d c d < 0 # 0 @ ",
", : , , , ~ { $ { ) ) ) q r s t u v w : , x ~ $ y ) ' z , : : : ",
") ) [ ) ) ' A B { ) ) ) C D s E F G H ) ) ' { B { ) ) ) ) ) ) ) ",
"{ y y { { { y B f { { { I J K L M N O ~ ~ { y B e { y { { { { { ",
"c f A g P Q g f $ f f f R S T U V W X g P P A c c e c c e f c p ",
"! ) ) ) [ [ ) ) ! ) ' ' Y Z `  ...+.@.[ [ [ ) ) ) ) ) ) ) ) ) d ",
") ) ) ) ' ) ) ) ) ) #.~ $.%.&.*.=.-.;.) ) ) ) ) ) ) ) ~ ! { o >.",
"y { { { { { { { ~ ,.'.).!.~.{.].^./.(.{ { { { { y { { y Q Q f >.",
"c f c c f c _.:.<.[.}.|.1.2.3.4.5.6.7.8.c c c p $ e A g g P g $ ",
", , , , , ' 9.0.a.b.c.d.e.f.g.h.i.j.k.! l.) e p { ) ) ) [ [ [ ) ",
"< > _ _ _ , m.n.o.p.q.r.s.t.u.v.w.x.y.z.A.[ Q $ { ) ) ) ) ) ) ) ",
". - a ; ; : B.C.D.E.F.G.H.I.J.K.L.M.N.O.{ { { d e { { ~ { { { { ",
"p d c f f c P.Q.R.S.S.T.U.V.W.X.Y.Z.`. +.+++f $ $ $ d a >.- @+@+",
"' ) ) [ [ ) ) ) ) ' x x #+~.$+%+&+*+=+-+;+>+[ ) ) ) : _ ; - .   ",
") ) ) ) ! ) ) ) ) ) ) ) ,+'+)+!+&+~+{+]+^+/+) ) ) ) , _ > > ; + ",
"y { Q { { { ~ y { (+_+:+<+[+}+|+1+2+3+4+5+6+{ { { { 4 ; ; ; ; + ",
"A A f c c c c >.$ 7+8+9+0+a+b+c+d+e+f+g+h+i+o >.d c d < @ # @ @ ",
"[ ) ! ! ! ' y B j+/+k+l+m+n+o+p+q+r+s+t+u+' y B y ) x { : , , : ",
") ) ) [ [ ) ! $ { v+w+x+y+z+A+B+C+D+E+) ) ) Q o { ) ) ) ) ) ) ) ",
"{ { { { { y y B f F+G+H+I+J+A+K+L+M+N+{ { { { d e { { { { { { { ",
"o f A g P P g c c e O+P+Q+R+A+A+S+T+U+g P P A f c e c e c c c >.",
"' ) ) [ [ [ ) ) ) ) ) ) V+W+X+Y+A+Z+`+[ [ [ ) ) ) ) ) ' ) ) ) d ",
") ) ) ) ) ) ) ) ) ) ) ~  @[+.@X+A++@@@) ) ' ' ' ) ) ) x ' { o >.",
"y { y { y { { { { { y y N+#@$@%@A+&@*@{ { Q { { { { { y { Q f >.",
"o c f c f c c # $ f A g =@-@;@A+>@,@'@f f f o p d f f A g Q g $ ",
", , , , z ' ' c y ) ) ~ { )@!@;@~@9.~ ~ ' ' f B { ) ' x { ~ { , ",
"; > _ _ _ , ' f y ) z _ _ {@]@^@/@z.' ' ) ) Q o { ) x _ _ _ > < ",
"(@- ; _ > : ' o , ) : > > > - _@:@<@' ' ) ' ' o j+' 4 > _ < @+@+"};
