/* XPM */
static char * stregones_xpm[] = {
"32 32 277 2",
"  	c #6D5967",
". 	c #745B69",
"+ 	c #82626D",
"@ 	c #946673",
"# 	c #936B75",
"$ 	c #9B757B",
"% 	c #9E797D",
"& 	c #A37B7E",
"* 	c #896370",
"= 	c #7C616D",
"- 	c #977688",
"; 	c #AA8263",
"> 	c #996A76",
", 	c #A46D78",
"' 	c #AD707B",
") 	c #B88386",
"! 	c #C49590",
"~ 	c #C2928F",
"{ 	c #AB6F7A",
"] 	c #4C3A46",
"^ 	c #4B3241",
"/ 	c #5C3A49",
"( 	c #5F4051",
"_ 	c #855869",
": 	c #BF918E",
"< 	c #724359",
"[ 	c #562452",
"} 	c #762E71",
"| 	c #792473",
"1 	c #612A58",
"2 	c #A26B77",
"3 	c #AB797F",
"4 	c #B68B8A",
"5 	c #BA8C8B",
"6 	c #7D4866",
"7 	c #73276D",
"8 	c #8C2C85",
"9 	c #932D8B",
"0 	c #7E2D78",
"a 	c #4D234B",
"b 	c #4A373F",
"c 	c #A0757C",
"d 	c #AB7C81",
"e 	c #A47E81",
"f 	c #6B2766",
"g 	c #832C7D",
"h 	c #912D86",
"i 	c #632D5D",
"j 	c #351D34",
"k 	c #B57E83",
"l 	c #B48485",
"m 	c #5E2359",
"n 	c #7B2C75",
"o 	c #8F2C88",
"p 	c #84227D",
"q 	c #BA868A",
"r 	c #A37457",
"s 	c #9E5956",
"t 	c #B55D76",
"u 	c #BF6871",
"v 	c #943F6F",
"w 	c #893C6A",
"x 	c #70324F",
"y 	c #6A3C24",
"z 	c #B88796",
"A 	c #947078",
"B 	c #AA8484",
"C 	c #C59994",
"D 	c #9B7874",
"E 	c #785766",
"F 	c #A6653C",
"G 	c #ED9857",
"H 	c #EB9959",
"I 	c #DC8C50",
"J 	c #935635",
"K 	c #814927",
"L 	c #5B3627",
"M 	c #B48887",
"N 	c #A68183",
"O 	c #644E51",
"P 	c #5E1F5A",
"Q 	c #C46C72",
"R 	c #B76965",
"S 	c #634C4C",
"T 	c #6F3C42",
"U 	c #472743",
"V 	c #513349",
"W 	c #B09190",
"X 	c #AE9291",
"Y 	c #AB8B8B",
"Z 	c #AE8381",
"` 	c #BD8F8A",
" .	c #775C5B",
"..	c #923689",
"+.	c #783863",
"@.	c #642D60",
"#.	c #957176",
"$.	c #8E6C74",
"%.	c #60444D",
"&.	c #826063",
"*.	c #B38888",
"=.	c #633357",
"-.	c #682D63",
";.	c #9E6477",
">.	c #985567",
",.	c #8D5570",
"'.	c #653A56",
").	c #7C3274",
"!.	c #592B57",
"~.	c #A28485",
"{.	c #412A3B",
"].	c #906C6E",
"^.	c #BE9C9B",
"/.	c #897C7A",
"(.	c #453F37",
"_.	c #81776D",
":.	c #AE5A45",
"<.	c #B7635C",
"[.	c #E9C4A8",
"}.	c #D2B1A3",
"|.	c #B34939",
"1.	c #A94E3F",
"2.	c #7A6D69",
"3.	c #43233D",
"4.	c #3C2637",
"5.	c #6C5457",
"6.	c #3F283A",
"7.	c #543E47",
"8.	c #CFC4C5",
"9.	c #DED9D8",
"0.	c #B2A8A8",
"a.	c #CDCBCA",
"b.	c #AE4E34",
"c.	c #C36758",
"d.	c #F6C193",
"e.	c #E1B59C",
"f.	c #C4614B",
"g.	c #B85F44",
"h.	c #C2B6AF",
"i.	c #E6E5E2",
"j.	c #ECEAE9",
"k.	c #929190",
"l.	c #8A6B6C",
"m.	c #A7817F",
"n.	c #664850",
"o.	c #9F7775",
"p.	c #C3A4A3",
"q.	c #E9E5E6",
"r.	c #D9CECE",
"s.	c #C7C5C4",
"t.	c #D1C1B7",
"u.	c #F5B689",
"v.	c #EDAA78",
"w.	c #DBA178",
"x.	c #DCCDC6",
"y.	c #F8F8F7",
"z.	c #FCFDFD",
"A.	c #9FA1A0",
"B.	c #936D6F",
"C.	c #6F4B59",
"D.	c #88556F",
"E.	c #C0AAAC",
"F.	c #B4ABAA",
"G.	c #B2B0AF",
"H.	c #DDD7D3",
"I.	c #E1CFC5",
"J.	c #D0C3B9",
"K.	c #DBD2CE",
"L.	c #F1EDF0",
"M.	c #E0D5DF",
"N.	c #9E879C",
"O.	c #3E233B",
"P.	c #652961",
"Q.	c #87337E",
"R.	c #8C4A7B",
"S.	c #D5D1D2",
"T.	c #A1A2A1",
"U.	c #E5DCD8",
"V.	c #F6F4F4",
"W.	c #D5CDC8",
"X.	c #CDC6C2",
"Y.	c #BCAAB9",
"Z.	c #954A90",
"`.	c #9B3F94",
" +	c #3B213A",
".+	c #86297E",
"++	c #88397E",
"@+	c #89447B",
"#+	c #865682",
"$+	c #BAB6B9",
"%+	c #F2EFF2",
"&+	c #EDE8EA",
"*+	c #C5B2B7",
"=+	c #A37E98",
"-+	c #481D44",
";+	c #6D5855",
">+	c #AA7083",
",+	c #9B5982",
"'+	c #934B81",
")+	c #8A3C7E",
"!+	c #6D1E66",
"~+	c #865B81",
"{+	c #AA85A5",
"]+	c #E3DBE1",
"^+	c #E1D9DF",
"/+	c #D1C3CF",
"(+	c #CDBDCA",
"_+	c #C5A8C2",
":+	c #C99893",
"<+	c #A26785",
"[+	c #88357E",
"}+	c #731F6C",
"|+	c #877886",
"1+	c #A2779E",
"2+	c #CCBCCA",
"3+	c #D9CFD8",
"4+	c #CFC0CD",
"5+	c #D5C8D2",
"6+	c #D0B8CD",
"7+	c #732B6E",
"8+	c #B28587",
"9+	c #975382",
"0+	c #914880",
"a+	c #75336C",
"b+	c #847483",
"c+	c #986192",
"d+	c #CCBCC9",
"e+	c #D0C1CD",
"f+	c #D0C2CE",
"g+	c #B28FAD",
"h+	c #592C57",
"i+	c #977588",
"j+	c #89487B",
"k+	c #743C67",
"l+	c #A47C9F",
"m+	c #D4C5CF",
"n+	c #D4C5D0",
"o+	c #EBE7E9",
"p+	c #E4DBDE",
"q+	c #522B49",
"r+	c #32202F",
"s+	c #B6858A",
"t+	c #8F5635",
"u+	c #EEB58E",
"v+	c #F1D2C1",
"w+	c #F2DCCF",
"x+	c #F2EBE8",
"y+	c #E6D7D6",
"z+	c #99654D",
"A+	c #7F4825",
"B+	c #3B221C",
"C+	c #74452B",
"D+	c #D58650",
"E+	c #CF824B",
"F+	c #C37C57",
"G+	c #D2BEB5",
"H+	c #D4C2B9",
"I+	c #96654D",
"J+	c #663B1F",
"K+	c #321F0E",
"L+	c #735656",
"M+	c #77375F",
"N+	c #54234A",
"O+	c #1B1615",
"P+	c #68524F",
"Q+	c #592453",
"R+	c #453935",
"S+	c #95328B",
"T+	c #3F3930",
"U+	c #745A65",
"V+	c #432D3C",
"W+	c #8E3184",
"X+	c #823179",
"Y+	c #653260",
"Z+	c #BE8892",
"`+	c #9A5993",
" @	c #A5657C",
"    . + @ # $ % & % # @ *       = - - ; % & % & % % > * * .     ",
". . + , ' ) ! ! ! ~ ) { , + . ] ^ / ( / _ : ~ ! ! ! ) ' , + . . ",
"* , ' ' ' ) ! ! ! ! ) ' ' , < [ } | | | 1 + ~ ~ ! ! ) { ' { , 2 ",
"* 2 , 2 , 3 4 4 5 4 3 , , 6 7 8 9 9 9 0 a b 4 4 4 4 3 , , , , 2 ",
"@ > @ @ > c d $ # e - @ / f g h 9 9 8 i j ^ e $ # e c > @ @ @ @ ",
") k ) l 5 ~ ~ 4 % 5 5 _ m } n 8 o 9 9 p a ] ! l % 5 5 ) k l l ) ",
"! ~ ~ ~ ! ~ ~ 4 $ q r s t t t u t v w w x y ~ z A B 5 ! ! C ! ! ",
"4 4 4 5 4 4 : D E r F G G H G H I J K K K L E e $ M 4 5 5 4 4 4 ",
"# e N d e d O ^ P w Q Q Q Q Q Q R _ y S T / U V ] $ W X Y B e e ",
"$ : Z ` ~  .P 7 8 8 ..h p h g +.p i i i @.@.@.[ U ( #.C ! ! ! ~ ",
"$.e %.&.*.b =.-.[ =._ _ ;.>.,.< '.'.).).).n 0 f !.a U * ! ! ! ! ",
"$.N ~.{.].M l ^./.(._.:.<.[.}.|.1.2.$ - - E a 3.4.4.j 5.5 5 4 M ",
"$ Y X 6.7.B N 8.9.0.a.b.c.d.e.f.g.h.i.i.j.k.O = E l.l.$ N e e e ",
"! C C m.n.o.! p.q.r.s.t.d.u.v.H w.x.y.z.z.A.l.5 e ! ! q ) ) ) ) ",
"! ! ~ ! B.C.D.4 E.F.G.H.x.x.I.[.J.K.L.M.M.N.E Y d ~ q ' ' ' { 2 ",
"4 4 4 4 5 O.P.Q.R.S.T.U.h.h.j.V.W.X.Y.Z.`...7 6 #.4 d , , > + . ",
"= = + @ >  +.+++@+#+$+y.y.y.%+&+*+=+).o 9 9 o -+;+N N N N N $ $.",
"  . + , ' >+,+'+)+!+~+{+]+^+/+(+_+8 7 o 9 9 o a l.:+! ! C ! ! ~ ",
"* 2 ' ' ' l <+'+[+}+|+1+2+3+4+5+6+p 7+0 o o | ,.~ ! ! ! ! ! ! ! ",
"* , , 2 , 3 8+9+0+a+b+c+d+e+f+5+g+7 h+[ !.a _ 5 4 4 4 4 4 4 4 4 ",
"@ @ @ @ > $ ; i+j+k+2.l+m+n+o+p+6 =.q+3.r+;+N $ $.e e e N N N N ",
") ) ) l 5 ~ ~ s+$ O t+u+v+w+x+y+z+A+y B+O ! ! 4 A 4 ~ : : : ! C ",
"! ~ ~ ! ! ! C 5 & ;+C+D+E+F+G+H+I+C+J+K+L+! ! 4 % 5 ! ! C ! ! ! ",
"4 4 4 4 4 4 s+B % ;+3.6 w w M+_ =.i N+O+P+5 4 N $ 4 4 4 4 4 4 4 ",
"# e e e N e N e e   Q+8 o o o 8 7+8 | 4.4.l.N e e Y X X Y N N & ",
"$ ~ ! ~ ~ ! ! ! 4 U 7+9 9 9 9 o g o 8 h+j R+! ! ! ! C C C ! ! : ",
"$.N 4 : 5 ! ! ! ; q+0 9 9 9 9 9 9 S+g @.U T+! ! ! ! ! ! ! ! ! ! ",
"$.N 4 5 4 4 4 4 & [ o 9 9 9 9 9 o 9 8 } a 4.D s+4 4 4 4 4 4 4 M ",
"& Y X X B B N % U+N+h 9 9 9 9 o 0 8 9 g h+4.( D # e e N e N e e ",
") q 4 s+5 ! C D V+-...S+S+S+S+W+).W+S+X+Y+q+q+& e ~ ~ M ) ) ) ) ",
"2 , { ' ' q :+B # s+Z+Z+z ~ ~ k 2 `+ @,  @3 M M e ! ) ' { ' , , ",
". + , ' ' k ~ s+& ~ ~ ! ! ! ! Z+_ + { ' ' k ~ M & ~ k { ' , + . "};
