/* XPM */
static char * stregone3_xpm[] = {
"32 32 298 2",
"  	c #554A7C",
". 	c #5A4B84",
"+ 	c #634A9A",
"@ 	c #794CAE",
"# 	c #754DB1",
"$ 	c #7E58B8",
"% 	c #835EB9",
"& 	c #8E66B8",
"* 	c #6A49A3",
"= 	c #5E4A93",
"- 	c #6C49C4",
"; 	c #966F9E",
"> 	c #804FB4",
", 	c #9158B9",
"' 	c #A163BA",
") 	c #B483B8",
"! 	c #C193B3",
"~ 	c #BF92B4",
"{ 	c #9D60BA",
"] 	c #45374F",
"^ 	c #49324B",
"/ 	c #56395D",
"( 	c #543B64",
"_ 	c #6D4A93",
": 	c #BC91B6",
"< 	c #643F76",
"[ 	c #522357",
"} 	c #62297B",
"| 	c #67217C",
"1 	c #592863",
"2 	c #8E55B8",
"3 	c #9D6BB9",
"4 	c #B188B8",
"5 	c #B78DB8",
"6 	c #694184",
"7 	c #622476",
"8 	c #702791",
"9 	c #752898",
"0 	c #672883",
"a 	c #4C234D",
"b 	c #48374A",
"c 	c #875BBA",
"d 	c #9D6EB9",
"e 	c #8F69B9",
"f 	c #5D246E",
"g 	c #6B2788",
"h 	c #752995",
"i 	c #572A66",
"j 	c #351D34",
"k 	c #AF7AB9",
"l 	c #AE81B7",
"m 	c #57225F",
"n 	c #66287F",
"o 	c #722794",
"p 	c #6E2086",
"q 	c #B786BA",
"r 	c #926694",
"s 	c #955A9A",
"t 	c #AD55BD",
"u 	c #BD6AB0",
"v 	c #803C97",
"w 	c #77398C",
"x 	c #6D346E",
"y 	c #5C3632",
"z 	c #AE7DC2",
"A 	c #7450B4",
"B 	c #9C77B7",
"C 	c #C297B4",
"D 	c #805EB1",
"E 	c #614B84",
"F 	c #8D556C",
"G 	c #E77B5D",
"H 	c #E47C60",
"I 	c #CD645F",
"J 	c #7B4D5C",
"K 	c #693F3F",
"L 	c #523230",
"M 	c #AE84B7",
"N 	c #936EB9",
"O 	c #56476B",
"P 	c #581E5F",
"Q 	c #C26EAC",
"R 	c #B369A9",
"S 	c #574768",
"T 	c #6C3F67",
"U 	c #472745",
"V 	c #4C3153",
"W 	c #A486BA",
"X 	c #A085BA",
"Y 	c #9C7DB9",
"Z 	c #A37AB5",
"` 	c #B98EB5",
" .	c #635280",
"..	c #732F99",
"+.	c #69357B",
"@.	c #572968",
"#.	c #7754B2",
"$.	c #6D4DAD",
"%.	c #564064",
"&.	c #6A5092",
"*.	c #AC83B8",
"=.	c #593066",
"-.	c #5A296C",
";.	c #884BB7",
">.	c #864BA2",
",.	c #73449E",
"'.	c #5A3669",
").	c #662D81",
"!.	c #50285C",
"~.	c #8A6DB9",
"{.	c #412A3C",
"].	c #7553A9",
"^.	c #BC9DBC",
"/.	c #5952B1",
"(.	c #403C3D",
"_.	c #8A5C99",
":.	c #A05384",
"<.	c #B261A3",
"[.	c #E9C3A8",
"}.	c #CCA9AC",
"|.	c #A4487A",
"1.	c #9A4E7F",
"2.	c #9D538B",
"3.	c #43233D",
"4.	c #3C2637",
"5.	c #5B4B75",
"6.	c #3F283A",
"7.	c #4D3B57",
"8.	c #CFC4C6",
"9.	c #DED9D8",
"0.	c #A29AC0",
"a.	c #B576AD",
"b.	c #9B496F",
"c.	c #BC5F97",
"d.	c #F5BE94",
"e.	c #DDAEA0",
"f.	c #BC5389",
"g.	c #A64A7C",
"h.	c #B062A2",
"i.	c #E6E5E2",
"j.	c #ECEAE9",
"k.	c #6069C2",
"l.	c #6C52A3",
"m.	c #452C44",
"n.	c #533F64",
"o.	c #9671B5",
"p.	c #5A436B",
"q.	c #8860B4",
"r.	c #C1A5BD",
"s.	c #E9E5E6",
"t.	c #D9CECE",
"u.	c #B26AA8",
"v.	c #B15F9D",
"w.	c #BA648F",
"x.	c #F4AF8A",
"y.	c #E99A7C",
"z.	c #BF5778",
"A.	c #BF6E8A",
"B.	c #BC81AA",
"C.	c #F8F8F7",
"D.	c #FCFDFD",
"E.	c #7D87C3",
"F.	c #5D4774",
"G.	c #482C47",
"H.	c #5C416D",
"I.	c #7954AC",
"J.	c #5F4476",
"K.	c #6E4598",
"L.	c #BCA8C2",
"M.	c #A59EC0",
"N.	c #9FA1C2",
"O.	c #D2BEBC",
"P.	c #DCCDC6",
"Q.	c #E1CFC5",
"R.	c #CDC0BC",
"S.	c #DBD2CE",
"T.	c #F1EDF0",
"U.	c #E0D5DF",
"V.	c #6E56CF",
"W.	c #573F66",
"X.	c #482F49",
"Y.	c #5C426E",
"Z.	c #3E233B",
"`.	c #592668",
" +	c #6D2D8D",
".+	c #703B9B",
"++	c #D5D1D2",
"@+	c #8189C2",
"#+	c #E5DCD8",
"$+	c #BDB2BF",
"%+	c #F6F4F4",
"&+	c #D5CDC8",
"*+	c #CCC5C3",
"=+	c #AD9BCB",
"-+	c #E5DDE3",
";+	c #E6DCE4",
">+	c #503A5D",
",+	c #59446D",
"'+	c #3B213A",
")+	c #6E258A",
"!+	c #6D328F",
"~+	c #6D3A93",
"{+	c #6239A3",
"]+	c #ADABC5",
"^+	c #F2EFF2",
"/+	c #EDE8EA",
"(+	c #C3B1C6",
"_+	c #E7E1E4",
":+	c #E3DCE0",
"<+	c #E5DCE2",
"[+	c #E5DCE3",
"}+	c #481D44",
"|+	c #473349",
"1+	c #9759C1",
"2+	c #7D39BB",
"3+	c #7536A8",
"4+	c #6E3591",
"5+	c #621D6E",
"6+	c #603AA7",
"7+	c #8559D6",
"8+	c #E3DBE1",
"9+	c #E1D9DF",
"0+	c #D1C3CF",
"a+	c #CBBCCE",
"b+	c #BA9BD2",
"c+	c #E4DCE2",
"d+	c #E2DCDF",
"e+	c #C696B1",
"f+	c #8644C5",
"g+	c #6E2F8E",
"h+	c #651E74",
"i+	c #4C42BD",
"j+	c #723CDD",
"k+	c #C9B9CF",
"l+	c #D9CFD8",
"m+	c #CEC0CF",
"n+	c #D5C8D2",
"o+	c #EEE9EC",
"p+	c #612777",
"q+	c #AA7FB8",
"r+	c #7735B5",
"s+	c #7437A2",
"t+	c #622E7A",
"u+	c #4C41B7",
"v+	c #6C2CCD",
"w+	c #CABACE",
"x+	c #D0C1CF",
"y+	c #D0C2CF",
"z+	c #E9E3E7",
"A+	c #4F295C",
"B+	c #6D48C4",
"C+	c #6D3B96",
"D+	c #61367A",
"E+	c #575192",
"F+	c #7847D9",
"G+	c #D4C5CF",
"H+	c #D4C5D0",
"I+	c #EBE7E9",
"J+	c #E4DBDE",
"K+	c #502B52",
"L+	c #32202F",
"M+	c #5B4E74",
"N+	c #B081BA",
"O+	c #774D5A",
"P+	c #ECAD90",
"Q+	c #F1D2C1",
"R+	c #F2DCCF",
"S+	c #F2EBE8",
"T+	c #E6D7D6",
"U+	c #875F87",
"V+	c #693E3B",
"W+	c #3B221C",
"X+	c #623D3F",
"Y+	c #C56069",
"Z+	c #BD5D6C",
"`+	c #B4668A",
" @	c #CFBAB8",
".@	c #D2C0BB",
"+@	c #845F84",
"@@	c #5B362A",
"#@	c #321F0E",
"$@	c #624F7A",
"%@	c #6A3579",
"&@	c #532451",
"*@	c #1B1615",
"=@	c #5A4B6C",
"-@	c #55235A",
";@	c #42383C",
">@	c #762C9B",
",@	c #3D3832",
"'@	c #5C4C82",
")@	c #432D3F",
"!@	c #722C93",
"~@	c #6A2C87",
"{@	c #572D6A",
"]@	c #BB88BE",
"^@	c #7128CB",
"/@	c #914DBD",
"    . + @ # $ % & % # @ *       = - - ; % & % & % % > * * .     ",
". . + , ' ) ! ! ! ~ ) { , + . ] ^ / ( / _ : ~ ! ! ! ) ' , + . . ",
"* , ' ' ' ) ! ! ! ! ) ' ' , < [ } | | | 1 + ~ ~ ! ! ) { ' { , 2 ",
"* 2 , 2 , 3 4 4 5 4 3 , , 6 7 8 9 9 9 0 a b 4 4 4 4 3 , , , , 2 ",
"@ > @ @ > c d $ # e - @ / f g h 9 9 8 i j ^ e $ # e c > @ @ @ @ ",
") k ) l 5 ~ ~ 4 % 5 5 _ m } n 8 o 9 9 p a ] ! l % 5 5 ) k l l ) ",
"! ~ ~ ~ ! ~ ~ 4 $ q r s t t t u t v w w x y ~ z A B 5 ! ! C ! ! ",
"4 4 4 5 4 4 : D E r F G G H G H I J K K K L E e $ M 4 5 5 4 4 4 ",
"# e N d e d O ^ P w Q Q Q Q Q Q R _ y S T / U V ] $ W X Y B e e ",
"$ : Z ` ~  .P 7 8 8 ..h p h g +.p i i i @.@.@.[ U ( #.C ! ! ! ~ ",
"$.e %.&.*.b =.-.[ =._ _ ;.>.,.< '.'.).).).n 0 f !.a U * ! ! ! ! ",
"$.N ~.{.].M l ^./.(._.:.<.[.}.|.1.2.$ - - E a 3.4.4.j 5.5 5 4 M ",
"$ Y X 6.7.B N 8.9.0.a.b.c.d.e.f.g.h.i.i.j.k.O = E l.l.$ m.n.e e ",
"! C C o.p.q.! r.s.t.u.v.w.x.y.z.A.B.C.D.D.E.l.5 e ! F.G.H.) ) ) ",
"! ! ~ ! I.J.K.4 L.M.N.O.P.P.Q.[.R.S.T.U.U.V.E Y W.X.Y.' ' ' { 2 ",
"4 4 4 4 5 Z.`. +.+++@+#+$+$+j.%+&+*+=+-+;+..7 6 >+,+W., , > + . ",
"= = + @ > '+)+!+~+{+]+C.C.C.^+/+(+_+:+<+[+9 o }+|+N N N N N $ $.",
"  . + , ' 1+2+3+4+5+6+7+8+9+0+a+b+c+d+<+9 9 o a l.e+! ! C ! ! ~ ",
"* 2 ' ' ' l f+3+g+h+i+j+k+l+m+n+o+8+p+0 o o | ,.~ ! ! ! ! ! ! ! ",
"* , , 2 , 3 q+r+s+t+u+v+w+x+y+n+z+7 A+[ !.a _ 5 4 4 4 4 4 4 4 4 ",
"@ @ @ @ > $ ; B+C+D+E+F+G+H+I+J+6 =.K+3.L+M+N $ $.e e e N N N N ",
") ) ) l 5 ~ ~ N+$ O O+P+Q+R+S+T+U+V+y W+O ! ! 4 A 4 ~ : : : ! C ",
"! ~ ~ ! ! ! C 5 & M+X+Y+Z+`+ @.@+@X+@@#@$@! ! 4 % 5 ! ! C ! ! ! ",
"4 4 4 4 4 4 N+B % M+3.6 w w %@_ =.i &@*@=@5 4 N $ 4 4 4 4 4 4 4 ",
"# e e e N e N e e   -@8 o o o 8 p+8 | 4.4.l.N e e Y X X Y N N & ",
"$ ~ ! ~ ~ ! ! ! 4 U p+9 9 9 9 o g o 8 A+j ;@! ! ! ! C C C ! ! : ",
"$.N 4 : 5 ! ! ! ; K+0 9 9 9 9 9 9 >@g @.U ,@! ! ! ! ! ! ! ! ! ! ",
"$.N 4 5 4 4 4 4 & [ o 9 9 9 9 9 o 9 8 } a 4.D N+4 4 4 4 4 4 4 M ",
"& Y X X B B N % '@&@h 9 9 9 9 o 0 8 9 g A+4.( D # e e N e N e e ",
") q 4 N+5 ! C D )@-...>@>@>@>@!@).!@>@~@{@K+K+& e ~ ~ M ) ) ) ) ",
"2 , { ' ' q e+B # N+]@]@z ~ ~ k 2 ^@/@, /@3 M M e ! ) ' { ' , , ",
". + , ' ' k ~ N+& ~ ~ ! ! ! ! ]@_ + { ' ' k ~ M & ~ k { ' , + . "};
