/* XPM */
static char * stregonea_xpm[] = {
"32 32 189 2",
"  	c #6D5967",
". 	c #745B69",
"+ 	c #82626D",
"@ 	c #946673",
"# 	c #936B75",
"$ 	c #9B757B",
"% 	c #9E797D",
"& 	c #A37B7E",
"* 	c #896370",
"= 	c #7C616D",
"- 	c #977688",
"; 	c #AA8263",
"> 	c #996A76",
", 	c #A46D78",
"' 	c #AD707B",
") 	c #B88386",
"! 	c #C49590",
"~ 	c #C2928F",
"{ 	c #AB6F7A",
"] 	c #4C3A46",
"^ 	c #4B3241",
"/ 	c #5C3A49",
"( 	c #5F4051",
"_ 	c #855869",
": 	c #BF918E",
"< 	c #724359",
"[ 	c #562452",
"} 	c #762E71",
"| 	c #792473",
"1 	c #612A58",
"2 	c #A26B77",
"3 	c #AB797F",
"4 	c #B68B8A",
"5 	c #BA8C8B",
"6 	c #7D4866",
"7 	c #73276D",
"8 	c #8C2C85",
"9 	c #932D8B",
"0 	c #7E2D78",
"a 	c #4D234B",
"b 	c #4A373F",
"c 	c #A0757C",
"d 	c #AB7C81",
"e 	c #A47E81",
"f 	c #6B2766",
"g 	c #832C7D",
"h 	c #912D86",
"i 	c #632D5D",
"j 	c #351D34",
"k 	c #B57E83",
"l 	c #B48485",
"m 	c #5E2359",
"n 	c #7B2C75",
"o 	c #8F2C88",
"p 	c #84227D",
"q 	c #BA868A",
"r 	c #A37457",
"s 	c #9E5956",
"t 	c #B55D76",
"u 	c #BF6871",
"v 	c #943F6F",
"w 	c #893C6A",
"x 	c #70324F",
"y 	c #6A3C24",
"z 	c #B88796",
"A 	c #947078",
"B 	c #AA8484",
"C 	c #C59994",
"D 	c #9B7874",
"E 	c #785766",
"F 	c #A6653C",
"G 	c #ED9857",
"H 	c #EB9959",
"I 	c #DC8C50",
"J 	c #935635",
"K 	c #814927",
"L 	c #5B3627",
"M 	c #B48887",
"N 	c #A68183",
"O 	c #644E51",
"P 	c #5E1F5A",
"Q 	c #C46C72",
"R 	c #B76965",
"S 	c #634C4C",
"T 	c #6F3C42",
"U 	c #472743",
"V 	c #513349",
"W 	c #B09190",
"X 	c #AE9291",
"Y 	c #AB8B8B",
"Z 	c #775C5B",
"` 	c #923689",
" .	c #783863",
"..	c #642D60",
"+.	c #957176",
"@.	c #8E6C74",
"#.	c #633357",
"$.	c #682D63",
"%.	c #9E6477",
"&.	c #985567",
"*.	c #8D5570",
"=.	c #653A56",
"-.	c #7C3274",
";.	c #592B57",
">.	c #6D5855",
",.	c #3F3930",
"'.	c #706254",
").	c #B1A397",
"!.	c #E9C4A8",
"~.	c #D6BEAF",
"{.	c #916A55",
"].	c #7A6D69",
"^.	c #43233D",
"/.	c #3C2637",
"(.	c #6C5457",
"_.	c #3E342D",
":.	c #9D683C",
"<.	c #D7B69A",
"[.	c #F6C193",
"}.	c #DBA178",
"|.	c #B58159",
"1.	c #C2B6AF",
"2.	c #E6E5E2",
"3.	c #ECEAE9",
"4.	c #929190",
"5.	c #8A6B6C",
"6.	c #5F514D",
"7.	c #F5B689",
"8.	c #EDAA78",
"9.	c #DCCDC6",
"0.	c #F8F8F7",
"a.	c #FCFDFD",
"b.	c #9FA1A0",
"c.	c #767270",
"d.	c #D5CDC8",
"e.	c #E1CFC5",
"f.	c #D0C3B9",
"g.	c #DBD2CE",
"h.	c #F1EDF0",
"i.	c #E0D5DF",
"j.	c #9E879C",
"k.	c #848585",
"l.	c #E5DCD8",
"m.	c #F6F4F4",
"n.	c #CDC6C2",
"o.	c #BCAAB9",
"p.	c #954A90",
"q.	c #9B3F94",
"r.	c #1E1919",
"s.	c #888888",
"t.	c #C5B2B7",
"u.	c #A37E98",
"v.	c #481D44",
"w.	c #1B1615",
"x.	c #AC67A6",
"y.	c #C99893",
"z.	c #732B6E",
"A.	c #594447",
"B.	c #D9CED3",
"C.	c #9A5993",
"D.	c #592C57",
"E.	c #FBF2EE",
"F.	c #522B49",
"G.	c #32202F",
"H.	c #B6858A",
"I.	c #8F5635",
"J.	c #CB9368",
"K.	c #7F4825",
"L.	c #3B221C",
"M.	c #74452B",
"N.	c #D58650",
"O.	c #CF824B",
"P.	c #C37C57",
"Q.	c #663B1F",
"R.	c #321F0E",
"S.	c #735656",
"T.	c #77375F",
"U.	c #54234A",
"V.	c #68524F",
"W.	c #592453",
"X.	c #453935",
"Y.	c #95328B",
"Z.	c #745A65",
"`.	c #432D3C",
" +	c #8E3184",
".+	c #823179",
"++	c #653260",
"@+	c #BE8892",
"#+	c #A5657C",
"    . + @ # $ % & % # @ *       = - - ; % & % & % % > * * .     ",
". . + , ' ) ! ! ! ~ ) { , + . ] ^ / ( / _ : ~ ! ! ! ) ' , + . . ",
"* , ' ' ' ) ! ! ! ! ) ' ' , < [ } | | | 1 + ~ ~ ! ! ) { ' { , 2 ",
"* 2 , 2 , 3 4 4 5 4 3 , , 6 7 8 9 9 9 0 a b 4 4 4 4 3 , , , , 2 ",
"@ > @ @ > c d $ # e - @ / f g h 9 9 8 i j ^ e $ # e c > @ @ @ @ ",
") k ) l 5 ~ ~ 4 % 5 5 _ m } n 8 o 9 9 p a ] ! l % 5 5 ) k l l ) ",
"! ~ ~ ~ ! ~ ~ 4 $ q r s t t t u t v w w x y ~ z A B 5 ! ! C ! ! ",
"4 4 4 5 4 4 : D E r F G G H G H I J K K K L E e $ M 4 5 5 4 4 4 ",
"# e N d e d O ^ P w Q Q Q Q Q Q R _ y S T / U V ] $ W X Y B e e ",
"$ : ! ! ~ Z P 7 8 8 ` h p h g  .p i i i ......[ U ( +.C ! ! ! ~ ",
"@.e 4 ~ 4 b #.$.[ #._ _ %.&.*.< =.=.-.-.-.n 0 f ;.a U * ! ! ! ! ",
"@.N W 5 4 M l M >.,.'.r ).!.~.r {.].$ - - E a ^././.j (.5 5 4 M ",
"$ Y X X Y B N $ @.Z _.:.<.[.!.}.|.1.2.2.3.4.O = E 5.5.$ N e e e ",
"! C C C ! ! ! 4 A e 6.; [.7.8.H }.9.0.a.a.b.5.5 e ! ! q ) ) ) ) ",
"! ! ~ ! ~ ~ ! 4 e Z c.d.9.9.e.!.f.g.h.i.i.j.E Y d ~ q ' ' ' { 2 ",
"4 4 4 4 5 5 : N $ S k.l.1.1.3.m.d.n.o.p.q.` 7 6 +.4 d , , > + . ",
"= = + @ > +.& & +.r.s.0.0.0.a.m.t.u.-.o 9 9 o v.>.N N N N N $ @.",
"  . + , ' ) ~ ! B w.s.0.a.a.a.h.x.8 7 o 9 9 o a 5.y.! ! C ! ! ~ ",
"* 2 ' ' ' l ! ! B w.s.a.a.a.a.h.x.p z.0 o o | *.~ ! ! ! ! ! ! ! ",
"* , , 2 , 3 M : 4 A.k.0.a.a.0.B.C.7 D.[ ;.a _ 5 4 4 4 4 4 4 4 4 ",
"@ @ @ @ > $ ; - A S ].2.E.E.g.z 6 #.F.^.G.>.N $ @.e e e N N N N ",
") ) ) l 5 ~ ~ H.$ O I.8.8.8.J.R J K.y L.O ! ! 4 A 4 ~ : : : ! C ",
"! ~ ~ ! ! ! C 5 & >.M.N.O.P.F F I.M.Q.R.S.! ! 4 % 5 ! ! C ! ! ! ",
"4 4 4 4 4 4 H.B % >.^.6 w w T._ #.i U.w.V.5 4 N $ 4 4 4 4 4 4 4 ",
"# e e e N e N e e   W.8 o o o 8 z.8 | /./.5.N e e Y X X Y N N & ",
"$ ~ ! ~ ~ ! ! ! 4 U z.9 9 9 9 o g o 8 D.j X.! ! ! ! C C C ! ! : ",
"@.N 4 : 5 ! ! ! ; F.0 9 9 9 9 9 9 Y.g ..U ,.! ! ! ! ! ! ! ! ! ! ",
"@.N 4 5 4 4 4 4 & [ o 9 9 9 9 9 o 9 8 } a /.D H.4 4 4 4 4 4 4 M ",
"& Y X X B B N % Z.U.h 9 9 9 9 o 0 8 9 g D./.( D # e e N e N e e ",
") q 4 H.5 ! C D `.$.` Y.Y.Y.Y. +-. +Y..+++F.F.& e ~ ~ M ) ) ) ) ",
"2 , { ' ' q y.B # H.@+@+z ~ ~ k 2 C.#+, #+3 M M e ! ) ' { ' , , ",
". + , ' ' k ~ H.& ~ ~ ! ! ! ! @+_ + { ' ' k ~ M & ~ k { ' , + . "};
