/* XPM */
static char * stregonew_xpm[] = {
"32 32 291 2",
"  	c #6D5967",
". 	c #745B69",
"+ 	c #896370",
"@ 	c #996A76",
"# 	c #9E797D",
"$ 	c #A37B7E",
"% 	c #AA8263",
"& 	c #977688",
"* 	c #7C616D",
"= 	c #946673",
"- 	c #936B75",
"; 	c #9B757B",
"> 	c #82626D",
", 	c #A46D78",
"' 	c #AD707B",
") 	c #B88386",
"! 	c #C49590",
"~ 	c #C2928F",
"{ 	c #BF918E",
"] 	c #855869",
"^ 	c #5C3A49",
"/ 	c #5F4051",
"( 	c #4B3241",
"_ 	c #4C3A46",
": 	c #AB6F7A",
"< 	c #A26B77",
"[ 	c #612A58",
"} 	c #792473",
"| 	c #762E71",
"1 	c #562452",
"2 	c #724359",
"3 	c #AB797F",
"4 	c #B68B8A",
"5 	c #4A373F",
"6 	c #4D234B",
"7 	c #7E2D78",
"8 	c #932D8B",
"9 	c #8C2C85",
"0 	c #73276D",
"a 	c #7D4866",
"b 	c #BA8C8B",
"c 	c #A0757C",
"d 	c #A47E81",
"e 	c #351D34",
"f 	c #632D5D",
"g 	c #912D86",
"h 	c #832C7D",
"i 	c #6B2766",
"j 	c #AB7C81",
"k 	c #B48485",
"l 	c #B57E83",
"m 	c #84227D",
"n 	c #8F2C88",
"o 	c #7B2C75",
"p 	c #5E2359",
"q 	c #C59994",
"r 	c #AA8484",
"s 	c #947078",
"t 	c #B88796",
"u 	c #6A3C24",
"v 	c #70324F",
"w 	c #893C6A",
"x 	c #943F6F",
"y 	c #B55D76",
"z 	c #BF6871",
"A 	c #9E5956",
"B 	c #A37457",
"C 	c #BA868A",
"D 	c #B48887",
"E 	c #785766",
"F 	c #5B3627",
"G 	c #814927",
"H 	c #935635",
"I 	c #DC8C50",
"J 	c #EB9959",
"K 	c #ED9857",
"L 	c #A6653C",
"M 	c #9B7874",
"N 	c #AB8B8B",
"O 	c #AE9291",
"P 	c #B09190",
"Q 	c #513349",
"R 	c #472743",
"S 	c #6F3C42",
"T 	c #634C4C",
"U 	c #B76965",
"V 	c #C46C72",
"W 	c #5E1F5A",
"X 	c #644E51",
"Y 	c #A68183",
"Z 	c #957176",
"` 	c #642D60",
" .	c #783863",
"..	c #8C2D84",
"+.	c #922D89",
"@.	c #8F2A87",
"#.	c #923689",
"$.	c #775C5B",
"%.	c #BD8F8A",
"&.	c #AE8381",
"*.	c #592B57",
"=.	c #7C3274",
"-.	c #82317A",
";.	c #653A56",
">.	c #893180",
",.	c #803C6F",
"'.	c #90447F",
").	c #953C82",
"!.	c #943589",
"~.	c #7D3673",
"{.	c #885171",
"].	c #7F3076",
"^.	c #682D63",
"/.	c #633357",
"(.	c #B38888",
"_.	c #826063",
":.	c #60444D",
"<.	c #8E6C74",
"[.	c #6C5457",
"}.	c #3C2637",
"|.	c #43233D",
"1.	c #3E213D",
"2.	c #4D2948",
"3.	c #95598A",
"4.	c #814178",
"5.	c #93338A",
"6.	c #923489",
"7.	c #98377E",
"8.	c #963087",
"9.	c #95358C",
"0.	c #932E8B",
"a.	c #812C78",
"b.	c #822E76",
"c.	c #8C5480",
"d.	c #76376D",
"e.	c #7A4F71",
"f.	c #B79696",
"g.	c #906C6E",
"h.	c #412A3B",
"i.	c #A28485",
"j.	c #8A6B6C",
"k.	c #40283D",
"l.	c #41273F",
"m.	c #95378D",
"n.	c #802B79",
"o.	c #963C8D",
"p.	c #953188",
"q.	c #812A78",
"r.	c #812B78",
"s.	c #932D8A",
"t.	c #994E92",
"u.	c #9B5D92",
"v.	c #594356",
"w.	c #C8BDBE",
"x.	c #543E47",
"y.	c #3F283A",
"z.	c #482F41",
"A.	c #4C354B",
"B.	c #95398E",
"C.	c #812E7A",
"D.	c #782871",
"E.	c #94338C",
"F.	c #822E78",
"G.	c #942F8B",
"H.	c #812C79",
"I.	c #98448E",
"J.	c #977590",
"K.	c #7C6779",
"L.	c #C3A4A3",
"M.	c #9F7775",
"N.	c #5B3F4A",
"O.	c #A7817F",
"P.	c #442A40",
"Q.	c #856782",
"R.	c #A05E9A",
"S.	c #93308C",
"T.	c #782C73",
"U.	c #802C79",
"V.	c #95378C",
"W.	c #802A79",
"X.	c #94318C",
"Y.	c #963C8E",
"Z.	c #583E54",
"`.	c #77646C",
" +	c #88556F",
".+	c #634151",
"++	c #805D62",
"@+	c #822E7B",
"#+	c #94388D",
"$+	c #932F8B",
"%+	c #986893",
"&+	c #674E64",
"*+	c #7C416D",
"=+	c #87337E",
"-+	c #652961",
";+	c #3E233B",
">+	c #6D5855",
",+	c #481D44",
"'+	c #922D8A",
")+	c #812E79",
"!+	c #94328C",
"~+	c #82357C",
"{+	c #9A5793",
"]+	c #83467D",
"^+	c #8C3D80",
"/+	c #89387F",
"(+	c #86297E",
"_+	c #3B213A",
":+	c #C99893",
"<+	c #922D8B",
"[+	c #7F2A78",
"}+	c #8F3F88",
"|+	c #7F2578",
"1+	c #8A3C7E",
"2+	c #934B81",
"3+	c #41243E",
"4+	c #784D60",
"5+	c #8D5570",
"6+	c #7D2978",
"7+	c #8A2D83",
"8+	c #7A2674",
"9+	c #8D5E88",
"0+	c #731F6C",
"a+	c #88357E",
"b+	c #452541",
"c+	c #5B374F",
"d+	c #712C6D",
"e+	c #792873",
"f+	c #847483",
"g+	c #75336C",
"h+	c #4A2746",
"i+	c #572F4E",
"j+	c #B28587",
"k+	c #32202F",
"l+	c #4E2448",
"m+	c #782C70",
"n+	c #752B6E",
"o+	c #806372",
"p+	c #4B2547",
"q+	c #422440",
"r+	c #977588",
"s+	c #5D254F",
"t+	c #813569",
"u+	c #793364",
"v+	c #933189",
"w+	c #812B79",
"x+	c #792A72",
"y+	c #5C2E4A",
"z+	c #442641",
"A+	c #B6858A",
"B+	c #735656",
"C+	c #42202D",
"D+	c #803469",
"E+	c #74355D",
"F+	c #812D78",
"G+	c #863576",
"H+	c #963389",
"I+	c #613932",
"J+	c #68524F",
"K+	c #1B1615",
"L+	c #782870",
"M+	c #602A5B",
"N+	c #832F7B",
"O+	c #7F2B78",
"P+	c #912E88",
"Q+	c #7F2B77",
"R+	c #7D2E73",
"S+	c #77366B",
"T+	c #40223C",
"U+	c #7B2B75",
"V+	c #7E2A78",
"W+	c #902C89",
"X+	c #7B2975",
"Y+	c #592453",
"Z+	c #453935",
"`+	c #592C57",
" @	c #732B6E",
".@	c #3F3930",
"+@	c #95328B",
"@@	c #522B49",
"#@	c #7D2977",
"$@	c #54234A",
"%@	c #745A65",
"&@	c #653260",
"*@	c #823179",
"=@	c #8E3184",
"-@	c #7C2D73",
";@	c #432D3C",
">@	c #A5657C",
",@	c #9A5993",
"'@	c #BE8892",
"    . + + @ # # $ # $ # % & & *       + = - # $ # ; - = > .     ",
". . > , ' ) ! ! ! ~ { ] ^ / ^ ( _ . > , : ) ~ ! ! ! ) ' , > . . ",
"< , : ' : ) ! ! ~ ~ > [ } } } | 1 2 , ' ' ) ! ! ! ! ) ' ' ' , + ",
"< , , , , 3 4 4 4 4 5 6 7 8 8 8 9 0 a , , 3 4 b 4 4 3 , < , < + ",
"= = = = @ c d - ; d ( e f 9 8 8 g h i ^ = & d - ; j c @ = = @ = ",
") k k l ) b b # k ! _ 6 m 8 8 n 9 o | p ] b b # 4 ~ ~ b k ) l ) ",
"! ! q ! ! b r s t ~ u v w w x y z y y y A B C ; 4 ~ ~ ! ~ ~ ~ ! ",
"4 4 4 b b 4 D ; d E F G G G H I J K J K K L B E M { 4 4 b 4 4 4 ",
"d d r N O P ; _ Q R ^ S T u ] U V V V V V V w W ( X j d j Y d - ",
"~ ! ! ! q Z / R 1 ` ` ` f f f m  ...+.@.+.#.9 9 0 W $.~ %.&.{ ; ",
"! ! ! ! + R 6 *.i 7 o =.-.-.;.>.,.'.).!.~.{.].1 ^./.5 (._.:.d <.",
"D 4 b b [.e }.}.|.1.2.3.4.5.6.7.8.9.0.a.b.c.d.e.f.k D g.h.i.Y <.",
"d d d Y ; j.j.E * k.l.m.n.0.o.p.q.8 0.r.s.t.u.v.w.Y r x.y.O N ; ",
") ) ) ) C ! ! d b z.A.B.C.D.E.0.F.G.8 H.I.0.J.K.L.! M.N.O.q q ! ",
"< : ' ' ' C ~ j N P.Q.R.S.T.U.V.W.X.8 H.Y.0.Z.`.4  +.+++! ~ ! ! ",
". > @ , , j 4 Z a 0 #.@+8 #+W.$+W.E.8 W.$+%+&+*+=+-+;+b 4 4 4 4 ",
"<.; Y Y Y Y Y >+,+n 8 W.8 '+)+0.W.!+W.8 ~+{+]+^+/+(+_+@ = > * * ",
"~ ! ! q ! ! :+j.6 n 8 W.<+'+[+8 W.8 W.8 U.}+|+1+2+3+4+' , > .   ",
"! ! ! ! ! ! ! ~ 5+} n 6+7+U.8+0.W.8 W.8 U.9+0+a+b+c+k ' ' ' < + ",
"4 4 4 4 4 4 4 4 b ] 6 *.1 d+e+$+W.8 W.8 U.f+g+h+i+j+3 , < , , + ",
"Y Y Y Y d d d <.; Y >+k+l+m+n+0.W.8 W.8 W.o+p+q+r+% ; @ = = = = ",
"q ! { { { ~ 4 s 4 ! ! X s+t+u+v+W.$+W.w+x+y+z+; A+~ ~ b k ) ) ) ",
"! ! ! q ! ! b # 4 ! ! B+C+D+E+v+W.!+F+G+H+I+>+$ b q ! ! ! ~ ~ ! ",
"4 4 4 4 4 4 4 ; Y 4 b J+K+L+M+N+O+P+Q+R+S+T+>+# r A+4 4 4 4 4 4 ",
"$ Y Y N O O N d d Y j.}.}.} 9 U+V+'+W+n X+Y+  d d Y d Y d d d - ",
"{ ! ! q q q ! ! ! ! Z+e `+9 n h n 8 8 8 W. @R 4 ! ! ! ~ ~ ! ~ ; ",
"! ! ! ! ! ! ! ! ! ! .@R ` h +@8 W.8 8 8 W.7 @@% ! ! ! b { 4 Y <.",
"D 4 4 4 4 4 4 4 A+M }.6 | 9 8 n W.8 8 8 8 n 1 $ 4 4 4 4 b 4 Y <.",
"d d Y d Y d d - M / }.`+h 8 9 7 #@8 8 8 8 g $@%@# Y r r O O N $ ",
") ) ) ) D ~ ~ d $ @@@@&@*@+@=@=.-@+@+@+@+@#.^.;@M q ! b A+4 C ) ",
", , ' : ' ) ! d D D 3 >@, >@,@< l ~ ~ t '@'@A+- r :+C ' ' : , < ",
". > , ' : l ~ $ D ~ l ' ' : > ] '@! ! ! ! ~ ~ $ A+~ l ' ' , > . "};
