/* XPM */
static char *stregone[] = {
/* columns rows colors chars-per-pixel */
"32 32 201 2 ",
"   c #1B1615",
".  c #1E1919",
"X  c #321F0E",
"o  c #3B221C",
"O  c #381E36",
"+  c #351D34",
"@  c #32202F",
"#  c #3E342D",
"$  c #3C2637",
"%  c #3F3930",
"&  c #663B1F",
"*  c #43233D",
"=  c #432D3C",
"-  c #4A373F",
";  c #453935",
":  c #5B3627",
">  c #6A3C24",
",  c #7F4825",
"<  c #74452B",
"1  c #65443F",
"2  c #7B563C",
"3  c #5E1F5A",
"4  c #481D44",
"5  c #4A2746",
"6  c #4D234B",
"7  c #472743",
"8  c #54234A",
"9  c #522B49",
"0  c #4C3A46",
"q  c #4B3241",
"w  c #513C41",
"e  c #513349",
"r  c #5C3A49",
"t  c #562452",
"y  c #592453",
"u  c #592C57",
"i  c #5E2359",
"p  c #592B57",
"a  c #6F3C42",
"s  c #70324F",
"d  c #632D5D",
"f  c #612A58",
"g  c #633357",
"h  c #653A56",
"j  c #77375F",
"k  c #642D60",
"l  c #682D63",
"z  c #6B2766",
"x  c #73276D",
"c  c #732B6E",
"v  c #653260",
"b  c #783863",
"n  c #762E71",
"m  c #7B2C75",
"M  c #7E2D78",
"N  c #792473",
"B  c #7C3274",
"V  c #594447",
"C  c #5F514D",
"Z  c #5F4051",
"A  c #634C4C",
"S  c #7F454B",
"D  c #68524F",
"F  c #644E51",
"G  c #6A4F50",
"H  c #724359",
"J  c #6D5855",
"K  c #6C5457",
"L  c #775C5B",
"P  c #735656",
"I  c #706254",
"U  c #7D4866",
"Y  c #6D5967",
"T  c #745A65",
"R  c #745B69",
"E  c #785766",
"W  c #7C616D",
"Q  c #7A6D69",
"!  c #767270",
"~  c #8F5635",
"^  c #935635",
"/  c #814927",
"(  c #9D683C",
")  c #A6653C",
"_  c #893C6A",
"`  c #943F6F",
"'  c #832C7D",
"]  c #84227D",
"[  c #823179",
"{  c #9E5956",
"}  c #916A55",
"|  c #BA7643",
" . c #A37457",
".. c #855869",
"X. c #80447A",
"o. c #8D5570",
"O. c #985567",
"+. c #B55D76",
"@. c #B95F78",
"#. c #82626D",
"$. c #8A6B6C",
"%. c #8A696A",
"&. c #896370",
"*. c #8E6C74",
"=. c #946673",
"-. c #936B75",
";. c #996A76",
":. c #9E6477",
">. c #957176",
",. c #947078",
"<. c #9B757B",
"1. c #9E797D",
"2. c #9B7874",
"3. c #B76965",
"4. c #A26B77",
"5. c #A46D78",
"6. c #AB6F7A",
"7. c #A5657C",
"8. c #BF6871",
"9. c #AD707B",
"0. c #A37B7E",
"q. c #AB797F",
"w. c #A0757C",
"e. c #C37C57",
"r. c #C46C72",
"t. c #B58159",
"y. c #AA8263",
"u. c #CF824B",
"i. c #D58650",
"p. c #DC8C50",
"a. c #ED9857",
"s. c #EB9959",
"d. c #CB9368",
"f. c #DBA178",
"g. c #EDAA78",
"h. c #8C2C85",
"j. c #8F2C88",
"k. c #912D86",
"l. c #932D8B",
"z. c #8E3184",
"x. c #95328B",
"c. c #923689",
"v. c #9B3F94",
"b. c #954A90",
"n. c #9A5993",
"m. c #977688",
"M. c #A47E81",
"N. c #AB7C81",
"B. c #B57E83",
"V. c #A37E98",
"C. c #AC67A6",
"Z. c #888888",
"A. c #848585",
"S. c #9E879C",
"D. c #929190",
"F. c #A68183",
"G. c #AA8484",
"H. c #AB8B8B",
"J. c #B48485",
"K. c #B88386",
"L. c #B48887",
"P. c #BA868A",
"I. c #B68B8A",
"U. c #BA8C8B",
"Y. c #B6858A",
"T. c #BF918E",
"R. c #BE8892",
"E. c #B88796",
"W. c #AE9291",
"Q. c #B09190",
"!. c #B1A397",
"~. c #9FA1A0",
"^. c #BCAAB9",
"/. c #C2928F",
"(. c #C49590",
"). c #C59994",
"_. c #C99893",
"`. c #D7B69A",
"'. c #EFAF80",
"]. c #F5B689",
"[. c #C2B6AF",
"{. c #D6BEAF",
"}. c #C5B2B7",
"|. c #F6C193",
" X c #D0C3B9",
".X c #E9C4A8",
"XX c #CDC6C2",
"oX c #DCCDC6",
"OX c #D5CDC8",
"+X c #DBD2CE",
"@X c #D9CED3",
"#X c #E1CFC5",
"$X c #E0D5DF",
"%X c #E5DCD8",
"&X c #E6E5E2",
"*X c #ECEAE9",
"=X c #FBF2EE",
"-X c #F1EDF0",
";X c #F8F8F7",
":X c #FCFDFD",
">X c #F6F4F4",
/* pixels */
"Y Y R &.&.;.1.1.0.1.0.1.y.m.m.W Y Y Y &.=.-.1.0.1.<.-.=.#.R Y Y ",
"R R #.5.9.K.(.(.(./.T...r Z r q 0 R #.5.6.K./.(.(.(.K.9.5.#.R R ",
"4.5.6.9.6.K.(.(././.#.f N N N n t H 5.9.9.K.(.(.(.(.K.9.9.9.5.&.",
"4.5.5.5.5.q.I.I.I.I.- 6 M l.l.l.h.x U 5.5.q.I.U.I.I.q.5.4.5.4.&.",
"=.=.=.=.;.w.M.-.<.M.q + d h.l.l.k.' z r =.m.M.-.<.N.w.;.=.=.;.=.",
"K.J.J.B.K.U.U.1.J.(.0 6 ] l.l.j.h.m n i ..U.U.1.I././.U.J.K.B.K.",
"(.(.).(.(.U.G.,.E./.> s _ _ ` +.8.+.+.+.{  .P.<.I././.(./././.(.",
"I.I.I.U.U.I.L.<.M.E : / / / ^ p.s.a.s.a.a.)  .E 2.T.I.I.U.I.I.I.",
"M.M.G.H.W.Q.<.0 e 7 r a A > ..3.r.r.r.r.r.r._ 3 q F N.M.N.F.M.-.",
"/.(.(.(.).>.Z 7 t k k k d d d ] b ' k.] k.c.h.h.x 3 L /.(.(.T.<.",
"(.(.(.(.&.7 6 p z M m B B B h h H o.O.:.....g t l g - I./.I.M.*.",
"L.I.U.U.K + $ $ * 6 E m.m.<.Q }  .{..X!. .I % J L.J.L.I.U.Q.F.*.",
"M.M.M.F.<.$.$.E W F D.*X&X&X[.t.f..X|.`.( # L *.<.F.G.H.W.W.H.<.",
"K.K.K.K.P.(.(.M.U.$.~.:X:X;XoXf.s.g.].|.y.C M.,.I.(.(.(.).).).(.",
"4.6.9.9.9.P./.N.H.E S.$X$X-X+X X.X#XoXoXOX! L M.I.(././.(./.(.(.",
"R #.;.5.5.N.I.>.U x c.v.b.^.XXOX>X*X[.[.%XA.A <.F.T.U.U.I.I.I.I.",
"*.<.F.F.F.F.F.J 4 j.l.l.j.B V.}.>X:X;X;X;XZ.. >.0.0.>.;.=.#.W W ",
"/.(.(.).(.(._.$.6 j.l.l.j.x h.C.-X:X:X:X;XZ.  G.(./.K.9.5.#.R Y ",
"(.(.(.(.(.(.(./.o.N j.j.M c ] C.-X:X:X:X:XZ.  G.(.(.J.9.9.9.4.&.",
"I.I.I.I.I.I.I.I.U...6 p t u x n.@X;X:X:X;XA.V I.T.L.q.5.4.5.5.&.",
"F.F.F.F.M.M.M.*.<.F.J @ * 9 g U E.+X=X=X&XQ A ,.m.y.<.;.=.=.=.=.",
").(.T.T.T./.I.,.I.(.(.F o > , ^ 3.d.g.g.g.~ F <.Y././.U.J.K.K.K.",
"(.(.(.).(.(.U.1.I.(.(.P X & < ~ ) ) e.u.i.< J 0.U.).(.(.(././.(.",
"I.I.I.I.I.I.I.<.F.I.U.D   8 d g ..j _ _ U * J 1.G.Y.I.I.I.I.I.I.",
"0.F.F.H.W.W.H.M.M.F.$.$ $ N h.c h.j.j.j.h.y Y M.M.F.M.F.M.M.M.-.",
"T.(.(.).).).(.(.(.(.; + u h.j.' j.l.l.l.l.c 7 I.(.(.(././.(./.<.",
"(.(.(.(.(.(.(.(.(.(.% 7 k ' x.l.l.l.l.l.l.M 9 y.(.(.(.U.T.I.F.*.",
"L.I.I.I.I.I.I.I.Y.2.$ 6 n h.l.j.l.l.l.l.l.j.t 0.I.I.I.I.U.I.F.*.",
"M.M.F.M.F.M.M.-.2.Z $ u ' l.h.M j.l.l.l.l.k.8 T 1.F.G.G.W.W.H.0.",
"K.K.K.K.L././.M.0.9 9 v [ x.z.B z.x.x.x.x.c.l = 2.).(.U.Y.I.P.K.",
"5.5.9.6.9.K.(.M.L.L.q.7.5.7.n.4.B././.E.R.R.Y.-.G._.P.9.9.6.5.4.",
"R #.5.9.6.B./.0.L./.B.9.9.6.#...R.(.(.(.(././.0.Y./.B.9.9.5.#.R "
};
