/* XPM */
static char *wall[] = {
/* columns rows colors chars-per-pixel */
"32 32 99 2 ",
"   c #3D3751",
".  c #3F3851",
"X  c #463751",
"o  c #463851",
"O  c #4C3A52",
"+  c #533C52",
"@  c #5B3C52",
"#  c #623B52",
"$  c #6B3C51",
"%  c #733C51",
"&  c #783B52",
"*  c #554154",
"=  c #5C4155",
"-  c #624255",
";  c #6B4454",
":  c #734253",
">  c #7A4454",
",  c #774B57",
"<  c #7C4B56",
"1  c #7B545C",
"2  c #7D5F63",
"3  c #6D6168",
"4  c #7C6264",
"5  c #8D3F4F",
"6  c #873D51",
"7  c #893E51",
"8  c #8D404F",
"9  c #824654",
"0  c #8A4452",
"q  c #844B56",
"w  c #8B4B55",
"e  c #934E57",
"r  c #8C5157",
"t  c #83565C",
"y  c #8C5359",
"u  c #80585E",
"i  c #945057",
"p  c #93565A",
"a  c #9A5659",
"s  c #95595B",
"d  c #9C5A5A",
"f  c #A34651",
"g  c #A64E54",
"h  c #AB5155",
"j  c #A15B5B",
"k  c #AB615F",
"l  c #B4675F",
"z  c #B6685F",
"x  c #BA695F",
"c  c #9B6262",
"v  c #926967",
"b  c #936B68",
"n  c #9B7B71",
"m  c #A46361",
"M  c #AA6763",
"N  c #A76864",
"B  c #AA6A65",
"V  c #A96E68",
"C  c #B46762",
"Z  c #B66961",
"A  c #B96A60",
"S  c #A47E72",
"D  c #C57467",
"F  c #CA7669",
"G  c #C47969",
"H  c #CE7D6D",
"J  c #9E8376",
"K  c #9C8379",
"L  c #A48174",
"P  c #A88777",
"I  c #A88877",
"U  c #A78B7B",
"Y  c #A88C7B",
"T  c #B18474",
"R  c #A9917F",
"E  c #CE806F",
"W  c #CE8070",
"Q  c #D18571",
"!  c #D6967B",
"~  c #D8977C",
"^  c #EA9A7C",
"/  c #9D8C81",
"(  c #A88F80",
")  c #A79282",
"_  c #A99483",
"`  c #AA9788",
"'  c #AA9A8B",
"]  c #EEA481",
"[  c #F1A481",
"{  c #F7B68B",
"}  c #F6BC8F",
"|  c #F9BD8F",
" . c #F6BE90",
".. c #F9BF90",
"X. c #F9C191",
"o. c #FCCB97",
"O. c #FCCE9A",
"+. c #FDD19E",
"@. c #FCD2A0",
/* pixels */
"4 Y ' Y 4 b U ' _ ) ` R I b 1 L ` R U v 1 S ) ' ' Y v u R ' Y 4 ",
"I O.@.O.T ~ o.+.+.O.+.O.O.~ V  .+.O.o.~ V } O.@.+.O.~ T O.+.O.I ",
"L X.O.X.P Q { X.X.X.X.X.{ Q N ] | X.{ W B [ | X.X.{ Q P X.O.X.L ",
"c ^ ] ^ k C H H E E H H F Z p F E E H C s F H E H H Z m ^ ] ^ c ",
", k m c ; + * * = - ; - = # @ - = - - - + $ ; = = * + ; m m m , ",
"v ~ Q C + @ # @ @ 6 7 & # 6 8 & # 6 8 & @ 6 8 & + @ @ + C Q ~ v ",
"I O.{ H * + 9 a p w > p p : w d p w > p p > w s p 9 + + H { O.Y ",
"_ +.X.E * o i z x d q l l q d z Z d < Z C q d A x w o * E X.+._ ",
"' @.X.E = $ w r q s s d q t d p < d s y < p d y < 0 $ = H X.+.` ",
") +.X.H - 6 h a q C A Z q d A d q z A j q Z A d q g 6 = H X.O.) ",
"L  .^ F * O q d s q = : $ - - : ; : * O o = q a p 9 + * F ] } S ",
"1 V B d O O e A x e o O # = @ + + @ * O   o e A x e X O s M B 1 ",
"v ! W C * $ w w < 0 $ = C F H t 1 G D k + $ 0 r < 0 $ + C Q ! b ",
"I o.{ H = 6 h j q g 7 - H [ X.n n | [ F - 6 f a q h 7 - H { O.( ",
"R O.X.E * O q s p < O + H X.+.L U @.X.H + + 9 a p < O + H X.@.' ",
"R +.X.H * o a A A i O X t n / 3 3 K J t o O e A A e O * Q ..O.) ",
"_ O.X.W * $ w r > 9 $ + t J K 3 3 / n 1 O $ w w < 9 $ = H ..O.) ",
"' @.| H = 8 h j 9 f 5 = H X.+.J K +.X.W = 5 h j w g 7 - E X.O.R ",
"_ O.{ H * @ > s s 9 O * F ^ X.n n | [ H * O 9 s p 9 O * H { O.I ",
"v ~ W l + + q x x e o * x E E u t H H Z + o e x l e X + C Q ~ v ",
"1 B m s O % w r = O . o O * * O O + * * O $ w r < 9 $ + s M V 1 ",
"S | [ F @ 5 h a O   . . o @ # @ O # # # + 6 h d 9 g 5 - F ] | S ",
") O...W * O - r y t - < y q > p p p > w p q > s p 9 O * H | O.) ",
"` +.X.W * o - k x z q j x d q l Z Z q d x d q z x e o * E X.+.` ",
") O.X.H = $ 0 y < c s r < s s y < d s y < s s p < w $ * H X.O.Y ",
"Y O.{ W = 0 h d q l x d q z x j q z x d q l x d 9 g 5 - H } o.U ",
"b ~ Q C * O $ : $ : * * O * ; : ; : * O O * : : % $ O * C W ~ v ",
"< m m j ; + # - - = * O * * - - - + + * * * - - - = + ; c m k , ",
"c ^ [ ^ m C H H H W F s C H E E F d Z H W W H E W F C m ^ ] ^ c ",
"L X.O.X.P Q { ..X.X.] m W { X.| ^ B Q { X.X.X.X.X.{ Q T X.+.X.L ",
"I O.+.O.T ! o.O.+.O.| V ~ o.O.+.| V ~ o.O.+.O.+.+.o.~ T O.+.O.I ",
"4 R ' ) u b Y R _ R S 1 v U ) _ L 1 v U R _ _ _ ' I b 4 Y ' R 4 "
};
